
<svg xmlns="http://www.w3.org/2000/svg" width="500" height="500" version="1.0" viewBox="0 0 375 375"><defs><clipPath id="a"><path d="M183.3945 203H261v64.2969h-77.6055Zm0 0"/></clipPath><clipPath id="b"><path d="M290 193.7969h43.3945V236H290Zm0 0"/></clipPath><clipPath id="c"><path d="M105 203h78.3945v64.2969H105Zm0 0"/></clipPath><clipPath id="d"><path d="M33.3945 193.7969H76V236H33.3945Zm0 0"/></clipPath></defs><path fill="#fff"   d="M-37.5-37.5h450v450h-450z"/><path fill="#fff" d="M-37.5-37.5h450v450h-450z"/><g clip-path="url(#a)"><path fill="currentColor" d="M253.293 257.164c-2.7149 0-4.0547.1641-4.711-.2187-.5195-.3047-.6093-1.1719-.6093-1.1719 3.9218-.0898 7.4218-2.7539 7.4218-2.7539s2.9453 4.1446-2.1015 4.1446Zm-12.172-10.1288c-.4296-1.1641 2.2462-3.2188 5.9727-4.5938 3.7266-1.375 7.7735-3.5351 7.7735-3.5351s-2.4844 6.371-6.211 7.746c-3.7304 1.375-7.1015 1.547-7.5351.3829Zm-18.9804-15.207H197.418c-1.5743 0-2.711-1.504-2.2774-3.0118l3.9063-13.7031c1.9492-4.1563 6.6054-4.1094 6.6054-4.1094l11.9688-.3516v.1954c0 .6093.496 1.1054 1.1094 1.1054h6.8242c.6133 0 1.1094-.496 1.1094-1.1054v-.1954l11.9687.3516s4.6563-.0469 6.6055 4.1094l3.9062 13.7031c.4336 1.5078-.707 3.0117-2.2812 3.0117Zm11.3047 25.203H210.836l-1.7265-1.9218h26.0664Zm-30.2851-9.996c-.4297 1.164-3.8008.9921-7.5313-.3829-3.7266-1.375-6.211-7.746-6.211-7.746s4.043 2.1601 7.7735 3.5351c3.7266 1.375 6.4024 3.4297 5.9688 4.5938Zm-7.457 9.9101c-.6563.3828-1.9962.2188-4.711.2188-5.0469 0-2.1016-4.1446-2.1016-4.1446s3.4961 2.664 7.4219 2.754c0 0-.0898.8671-.6094 1.1718Zm-11.2423-32.9883c-.121 0-.2226-.0976-.2226-.2187 0-.125.1015-.2227.2226-.2227h6.8282c.121 0 .2187.0977.2187.2227a.2184.2184 0 0 1-.2187.2187Zm33.297-16.6172 1.832-2.8164h1.6445l1.8281 2.8125 1.6758-1.4648-1.5274-1.3477h1.6602l.8594.8633.8398-.8633h1.6445l-1.5195 1.3633 1.6602 1.4531h-1.6914l-.961-.9062-.9648.9062h-3.25l-.2461-.4648h-1.707l-.2383.4648Zm-1.2657 0h-1.504v-2.121h-1.535v-.6954h4.5741v.6953h-1.5351Zm12.4062-2.8164h1.5078v2.8164h-1.5078Zm24.0977 18.9922h6.8281c.1211 0 .2227.0977.2227.2227 0 .121-.1016.2187-.2227.2187h-6.8281c-.1211 0-.2227-.0976-.2227-.2187 0-.125.1016-.2227.2227-.2227Zm1.0547 6.3946c-.1602-.1368-.2578-.336-.2578-.543v-.8984c0-.3907.3203-.707.711-.707h5.4413c.5195 0 .9414-.422.9414-.9415v-3.5156c0-.5195-.4219-.9375-.9414-.9375h-6.6758c-1.0195 0-1.9336.625-2.3007 1.5742l-.4532 1.168-3.1054-10.2617s-1.1524-5.0391-6.3399-5.3477c-3.3672-.2031-10.336-.3828-14.8164-.4883h8c.625 0 1.004-.8398.664-1.4765l-1.9296-3.6016c-.2383-.4453-.6485-.7149-1.0899-.7149h-19.5156c-.4375 0-.8476.2696-1.086.7149l-1.9296 3.6016c-.3399.6367.039 1.4765.664 1.4765h8c-4.4804.1055-11.453.2852-14.8164.4883-5.1875.3086-6.3398 5.3477-6.3398 5.3477l-3.1055 10.2617-.453-1.168c-.3673-.9492-1.2813-1.5742-2.3048-1.5742h-6.6719c-.5195 0-.9414.418-.9414.9375v3.5156c0 .5195.422.9414.9414.9414h5.4415c.3906 0 .707.3164.707.707v.8985c0 .207-.0938.4062-.254.543-2.6445 2.2226-5.1405 8.0351-5.8163 9.6953a2.423 2.423 0 0 0-.1797.9101v25.0078c0 .9532.7734 1.7227 1.7304 1.7227h11.836c.9531 0 1.7305-.7695 1.7305-1.7227v-3.8242c0-.6015.4843-1.086 1.0859-1.086h3.3008c.6601 0 1.1992-.5312 1.1992-1.1913h34.043c0 .6601.539 1.1914 1.1992 1.1914h3.3008c.6015 0 1.0859.4844 1.0859 1.086v3.8241c0 .9532.7734 1.7227 1.7305 1.7227h11.836c.953 0 1.7304-.7695 1.7304-1.7227v-25.0078a2.423 2.423 0 0 0-.1797-.9101c-.6758-1.6602-3.1758-7.4727-5.8164-9.6953"/></g><path fill="currentColor" d="M266.3984 198.4883h.8985l-.4531-.8516ZM306.8008 195.8008h.6914l-.3477-.6563Zm0 0"/><g clip-path="url(#b)"><path fill="currentColor" d="M332.7031 207.2695h-4.4258c-.078 0-.1445-.0625-.1445-.1406 0-.082.0664-.1445.1445-.1445h4.4258a.1442.1442 0 0 1 .1446.1445c0 .0781-.0664.1406-.1446.1406Zm-3.2148 9.6914s-1.6094 4.125-4.0274 5.0196c-2.414.8906-4.6015 1-4.8789.246-.2812-.7538 1.4532-2.0859 3.8711-2.9765 2.414-.8906 5.0352-2.289 5.0352-2.289Zm-1.0195 11.832c-1.7579 0-2.629.1055-3.0547-.1445-.336-.1953-.3946-.7578-.3946-.7578 2.543-.0586 4.8125-1.7851 4.8125-1.7851s1.9102 2.6875-1.3632 2.6875Zm-18.5079-32.2968h-2.1054l-.1602-.3008h-1.1094l-.1523.3008h-.9961l1.1875-1.8242h1.0664l1.1836 1.8242 1.086-.9492-.9883-.875h1.0742l.5586.5625.543-.5625h1.0663l-.9843.8828 1.078.9414h-1.1015l-.621-.586Zm-5.3437 0h-.9766v-1.375h-.996v-.4492h2.9687v.4492h-.9961Zm8.039-1.8242h.9805v1.8242h-.9805Zm20.125 11.5664h-4.328c-.6602 0-1.254.4062-1.4923 1.0195l-.293.7578-2.0116-6.6484s-.7461-3.2695-4.1094-3.4688c-2.1797-.1328-6.6992-.25-9.6055-.3164h5.1875c.4063 0 .6524-.543.4297-.957l-1.25-2.336c-.1563-.289-.4219-.4609-.7031-.4609H301.953c-.2851 0-.5508.1719-.7031.461L300 196.625c-.2227.414.0234.957.4297.957h5.1836c-2.9024.0664-7.4219.1836-9.6055.3164-3.3594.1993-4.1055 3.4688-4.1055 3.4688l-1.0859 3.5898c.043.1328.0781.2657.1094.3868l.668 2.2109 1.7148-6.0156c1.2617-2.6953 4.2812-2.668 4.2812-2.668l7.7579-.2266v.125c0 .3985.3203.7188.7187.7188h4.4258c.3945 0 .7148-.3203.7148-.7188v-.125l7.7618.2266s3.0156-.0274 4.2812 2.668l2.5313 8.8789c.2773.9804-.457 1.953-1.4766 1.953h-22.0469a2.111 2.111 0 0 1 .0469.4493v2.9531c0 1.211-.9883 2.1914-2.1992 2.1914H296.75c2.0977 2.25 3.875 6.2774 4.5898 8.0313.172.414.254.8476.254 1.293v.1718h15.1328l-1.1211 1.2461h-14.0118v1.547h17.7188c0 .4296.3477.7733.7773.7733h2.1407c.3867 0 .703.3165.703.7032v2.4804c0 .6172.5 1.1172 1.1173 1.1172h7.6758c.6171 0 1.121-.5 1.121-1.1172V218c0-.1992-.043-.4023-.1171-.5898-.4375-1.0743-2.0586-4.8438-3.7696-6.2813-.1054-.0898-.168-.2187-.168-.3555v-.582c0-.25.2071-.457.461-.457h3.5274a.6102.6102 0 0 0 .6093-.6094v-2.2773a.6102.6102 0 0 0-.6094-.6094"/></g><path fill="currentColor" d="M294.5117 241.289c-2.2812 0-3.4101.1407-3.961-.1835-.4374-.254-.5116-.9844-.5116-.9844 3.2968-.0781 6.2382-2.3164 6.2382-2.3164s2.4805 3.4844-1.7656 3.4844Zm-10.2344-8.5156c-.3632-.9765 1.8868-2.707 5.0196-3.8632 3.1367-1.1563 6.539-2.9727 6.539-2.9727s-2.0898 5.3594-5.2265 6.5117c-3.1328 1.1563-5.9688 1.3008-6.332.3242Zm9.9844-19.7773h5.7422c.1016 0 .1875.082.1875.1836 0 .1016-.086.1875-.1875.1875h-5.7422c-.1015 0-.1836-.086-.1836-.1875 0-.1016.082-.1836.1836-.1836ZM270.5 199.3906h-2.7344l-.2031-.3906h-1.4375l-.1992.3906h-1.2969l1.543-2.3672h1.3789l1.539 2.3672 1.4102-1.2344-1.2852-1.1328h1.3946l.7265.7305.707-.7305h1.379l-1.2774 1.1485 1.3985 1.2187h-1.422l-.8124-.7617Zm-6.9336 0h-1.2656v-1.7812h-1.293v-.586h3.8477v.586h-1.289Zm10.4297-2.3672h1.2695v2.3672h-1.2695Zm21.1523 21.3477a.5879.5879 0 0 1-.2148-.457v-.754a.5977.5977 0 0 1 .5976-.5976h4.5743c.4375 0 .793-.3516.793-.789v-2.9532c0-.4375-.3555-.793-.793-.793h-5.6133c-.8594 0-1.629.5274-1.9375 1.3243l-.379.9804-2.6093-8.625s-.9726-4.2382-5.332-4.5c-2.832-.168-8.6953-.3203-12.461-.4062H278.5c.5273 0 .8438-.711.5586-1.2461l-1.6211-3.0234c-.2031-.375-.5469-.6016-.914-.6016h-16.4102c-.3711 0-.7149.2266-.918.6016l-1.621 3.0234c-.2852.5351.0312 1.246.5585 1.246h6.7266c-3.7656.086-9.629.2384-12.461.4063-4.3593.2618-5.332 4.5-5.332 4.5l-1.2578 4.164a8.462 8.462 0 0 1 1.5078 1.59l1.5781-5.5313c1.6407-3.4961 5.5547-3.457 5.5547-3.457l10.0664-.293v.164c0 .5118.414.9297.9297.9297h5.7422c.5156 0 .9336-.418.9336-.9297v-.164l10.0625.293s3.914-.0391 5.5547 3.457l3.2851 11.5234c.3633 1.2696-.5937 2.5313-1.918 2.5313h-38.6718l.5273 1.746c.6563-.4843 1.4649-.7656 2.3086-.7656h6.6758c1.2969 0 2.3477 1.0508 2.3477 2.3399v3.5156c0 1.293-1.0508 2.3399-2.3477 2.3399h-4.625c2.6484 2.5117 4.9531 7.7226 5.8477 9.918.0664.1562.1172.3202.1601.4843h17.9492l-1.453 1.6172H261.453v2.0078h21.1758c0 .5547.4531 1.004 1.0078 1.004h2.7774c.5078 0 .914.4062.914.91v3.2188c0 .8008.6524 1.4492 1.4531 1.4492h9.9532c.8047 0 1.457-.6484 1.457-1.4492v-21.0312c0-.2618-.0508-.5196-.1523-.7657-.5664-1.3945-2.668-6.2812-4.8907-8.1523M220.3945 205.254l-.5312 1.0116h1.0664Zm0 0"/><path d="M142.586 113.0886c1.4063-.082 2.1485-.8672 2.2344-2.3593l.3438-13.2813c0-.707-.2344-1.2969-.7032-1.7656-.4687-.4688-1.0586-.7031-1.7656-.7031L89.8985 96.026c-1.4922.086-2.2695.8711-2.3437 2.3594l-.7031 17.75c0 .7813.2773 1.414.828 1.8906.5391.4688 1.2032.625 1.9845.4688l16.2343-3.0625-.7031 25.1562c.2266-.1562.461-.1562.7031 0v.2344c0 .086-.0781.125-.2343.125l-.4688-.2344-.4687 14.4532h.1093l-.0625.0625c-.0312.043-.0468.0625-.0468.0625l-.4844 18.8125v.3593c0 .543.2344 1.0313.7031 1.4688.4766.4297 1.0313.6406 1.6563.6406l15.9843-.3594c1.4883-.1562 2.2344-.9375 2.2344-2.3437l.125-.8281h-.125c-.2305 0-.4648-.1329-.7031-.4063-.2305-.2695-.3438-.4844-.3438-.6406l.3438-.7188c.2383-.2265.3594-.461.3594-.7031 0-.0703-.1211-.2266-.3594-.4687-.2305-.2266-.3438-.422-.3438-.5782 0-.164.1133-.4062.3438-.7187 0-.3828-.039-.6953-.1094-.9375-.086-.1563-.125-.4297-.125-.8281l.2344-.2344c.082 0 .1406-.0156.1719-.0469l.1875-.1875c-.3125-.1562-.4688-.3125-.4688-.4687-.1562-.1563-.2344-.3477-.2344-.5782.4688-.1562.7032-.3515.7032-.5937 0-.1563-.1993-.3906-.5938-.7031 0-.1563.2344-.2735.7031-.3594.4688-.1563.586-.3477.3594-.5781l-.3594-.2344c-.2304 0-.4218-.039-.5781-.125 0-.1563.0781-.3906.2344-.7031l.2344-.4688v-.2344l-.3594-.125c-.1563 0-.2774.0235-.3594.0625-.0742.043-.1484.0625-.2187.0625-.168 0-.25-.0781-.25-.2343v-.2344h.125l.0625-.0625.0625-.0625c.1562-.0703.3906-.1094.703-.1094.3126 0 .504-.1562.5782-.4687l.3594.4687.1094-.7031h-.7032c-.3867 0-.5-.3164-.3437-.9531.1562-.2266.1562-.461 0-.7032l-.2344-.3437-.125-.4844c0-.0703.1172-.2266.3594-.4687.2265-.2266.3437-.422.3437-.5782l-.2343-1.0625-.3438-1.1718.1094-.3594h.125l.2344-.2344v-.3437c0-.3204-.1211-.6407-.3594-.9532l.5937-.2343c.1563 0 .3125-.0782.4688-.2344h.3437l.125-2.8125h-.125c-.0742 0-.3437-.1172-.8125-.3594.2266-.3945.539-.5937.9375-.5937l.9375-34.5625Zm-46.0937-4.2343v-.3594h.7031v.3594Zm10.3437.4687v-.4687h.5938v.4687Zm-13.1718 1.1719c-.3125-.1563-.7032-.2344-1.172-.2344-.2421-.3125-.164-.7031.2345-1.1719h.703l.7032.4688v.4687Zm10.8125-1.0625c0 .2422-.0391.3594-.1094.3594h-.2344l-.125.1093-.4687-.1093v-.7032h.9375Zm-17.047.4687v-.3437h1.0626v.3437Zm9.5313-.1093-.4687.1093-.2344.2344c-.3984.1563-.4766.3555-.2344.5938-.3125.2421-.5468.2812-.7031.125-.086 0-.2031-.0391-.3594-.125-.1562-.082-.2773-.1602-.3593-.2344.1562-.082.3945-.2813.7187-.5938.2266-.2265.539-.3437.9375-.3437h.2344Zm-4.1093 1.1718v-.4687l1.5156.2344Zm4.3437 1.6407c-.5547-.0704-.8516-.207-.8906-.4063-.0313-.1953.1094-.4531.4219-.7656h.2343l.2344.125h.4688v.8125Zm9.1719-.8125c0 .3125-.1211.5859-.3594.8125-.3125-.2266-.4687-.461-.4687-.7032h.3593Zm-13.0469 1.1718v-.4687h.7031v.4687Zm8.1094.125c-.086.3125-.4766.4297-1.1719.3438-.1562 0-.2773-.0352-.3594-.1094h-.3593c-.1563-.082-.3907-.125-.7032-.125.2383-.4687.5508-.7031.9375-.7031.164 0 .7188.0781 1.6563.2344Zm6.4687 33.9688-.2343-.1094.3437-.2344.2344-.2343.2344.4687-.5782.2344Zm13.2813.8281c-.1563.1563-.2774.2344-.3594.2344l-.0625.0625-.0469.0469-.2343-.1094v-.2344Zm-12.7031 4c0 .2305-.0782.543-.2344.9375-.1563.3984-.3125.6328-.4688.7031.1563.1563.2344.3555.2344.5938-.0742.0742-.0937.211-.0625.4062.039.1992.0625.336.0625.4063 0 .1562.0781.5547.2344 1.1875l.3594.7031c0 .3125-.1993.586-.5938.8125l.2344.125c0 .3125.0195.668.0625 1.0625.039.3867.0195.7344-.0625 1.0469-.1563.4804-.039.7969.3594.9531-.2422.3125-.4766.4688-.7032.4688.2266.2304.3438.3437.3438.3437.1562 0 .2344.0781.2344.2344l-.1094.125c-.086.0742-.2031.1094-.3594.1094l-.8125-.1094-.4844-.2344c-.1562 0-.2734-.039-.3437-.125l.1094-1.2812.2343-2.5938c.164-.625.164-.9766 0-1.0625v-.8125c.3203-.3945.4844-.75.4844-1.0625 0-.082-.121-.2383-.3594-.4687a.84.84 0 0 1-.3593-.3594c0-.0703.078-.1875.2343-.3438l.3594-.3593c-.1562-.1563-.2344-.3125-.2344-.4688 0-.1562.039-.2344.125-.2344l.1094-.3593c-.0742-.1563-.1094-.3907-.1094-.7032 0-.539.3125-1.2851.9375-2.2343 0 .4687.1133.668.3438.5937.3125.0742.4687.2305.4687.4688l-.1093.4687Zm16.9375 2.2344c0 .0742-.043.1094-.125.1094v.2343h.125Zm-2.3594 4.5781c0 .1563-.0781.2773-.2344.3594l-.4687-.125v-.3438c.082.0742.203.1094.3593.1094Zm-14.9219 8.7031c-.3984.1563-.5156.3555-.3594.5938 0 .3125-.1172.664-.3437 1.0469l-.5938.125c-.3984-.5508-.5937-.9063-.5937-1.0625-.1563-.0704-.2344-.3047-.2344-.7032 0-.0703.0781-.1093.2344-.1093.1562 0 .1172-.1954-.1094-.5938.0703-.082.1094-.2031.1094-.3594l.125-.2343.1094-1.4063c0-.2383-.0391-.3945-.1094-.4687-.086-.1563-.125-.3516-.125-.5938-.0742-.0703.0039-.2852.2344-.6406.2382-.3516.4765-.6094.7187-.7656.0703 0 .129.0234.1719.0625.039.0312.0976.0898.1719.1718l.3593.125Zm0 0"/><g clip-path="url(#c)"><path fill="currentColor" d="M113.496 257.164c2.715 0 4.0548.1641 4.711-.2187.5196-.3047.6094-1.1719.6094-1.1719-3.9219-.0898-7.4219-2.7539-7.4219-2.7539s-2.9453 4.1446 2.1016 4.1446Zm12.168-10.1288c.4337-1.1641-2.2421-3.2188-5.9687-4.5938-3.7305-1.375-7.7734-3.5351-7.7734-3.5351s2.4844 6.371 6.211 7.746c3.7304 1.375 7.1015 1.547 7.5312.3829Zm18.9805-15.207h24.7227c1.5742 0 2.711-1.504 2.2812-3.0118l-3.9062-13.7031c-1.9492-4.1563-6.6055-4.1094-6.6055-4.1094l-11.9687-.3516v.1954c0 .6093-.4961 1.1054-1.1094 1.1054h-6.8281c-.6094 0-1.1055-.496-1.1055-1.1054v-.1954l-11.9688.3516s-4.6562-.0469-6.6054 4.1094l-3.9063 13.7031c-.4336 1.5078.7032 3.0117 2.2774 3.0117Zm-11.3047 25.203h22.6094l1.7305-1.9218h-26.0664Zm30.2852-9.996c.4336 1.164 3.8047.9921 7.5352-.3829 3.7265-1.375 6.2109-7.746 6.2109-7.746s-4.0469 2.1601-7.7734 3.5351c-3.7305 1.375-6.4024 3.4297-5.9727 4.5938Zm7.461 9.9101c.6562.3828 1.996.2188 4.7109.2188 5.0469 0 2.1015-4.1446 2.1015-4.1446s-3.5 2.664-7.4218 2.754c0 0 .0898.8671.6093 1.1718Zm11.2421-32.9883c.1211 0 .2227-.0976.2227-.2187a.2226.2226 0 0 0-.2227-.2227H175.5a.2226.2226 0 0 0-.2227.2227c0 .121.1016.2187.2227.2187Zm-33.3008-16.6172-1.832-2.8164h-1.6406l-1.8281 2.8125-1.6758-1.4648 1.5273-1.3477h-1.6601l-.8633.8633-.836-.8633h-1.6445l1.5156 1.3633-1.6562 1.4531h1.6914l.961-.9062.9609.9062h3.2539l.2422-.4648h1.711l.2382.4648Zm1.2696 0h1.5039v-2.121h1.5351v-.6954h-4.578v.6953h1.539Zm-12.4063-2.8164h-1.5078v2.8164h1.5078Zm-24.0976 18.9922h-6.8282a.2226.2226 0 0 0-.2226.2227c0 .121.1016.2187.2226.2187h6.8282a.2184.2184 0 0 0 .2187-.2187c0-.125-.0976-.2227-.2187-.2227Zm-1.0547 6.3946c.1601-.1368.2539-.336.2539-.543v-.8984a.7068.7068 0 0 0-.707-.707h-5.4415a.9394.9394 0 0 1-.9414-.9415v-3.5156c0-.5195.418-.9375.9415-.9375h6.6718c1.0235 0 1.9375.625 2.3047 1.5742l.4531 1.168 3.1016-10.2617s1.1563-5.0391 6.3398-5.3477c3.3672-.2031 10.3399-.3828 14.8204-.4883h-8c-.625 0-1.004-.8398-.6641-1.4765l1.9297-3.6016c.2383-.4453.6484-.7149 1.086-.7149h19.5155c.4415 0 .8516.2696 1.0899.7149l1.9258 3.6016c.3437.6367-.0352 1.4765-.6602 1.4765h-8c4.4766.1055 11.4492.2852 14.8164.4883 5.1875.3086 6.3399 5.3477 6.3399 5.3477l3.1054 10.2617.4493-1.168a2.4743 2.4743 0 0 1 2.3046-1.5742h6.6758c.5196 0 .9414.418.9414.9375v3.5156c0 .5195-.4219.9414-.9414.9414h-5.4414a.7068.7068 0 0 0-.707.707v.8985c0 .207.0937.4062.2539.543 2.6406 2.2226 5.1406 8.0351 5.8164 9.6953a2.423 2.423 0 0 1 .1797.9101v25.0078c0 .9532-.7735 1.7227-1.7305 1.7227h-11.836c-.957 0-1.7304-.7695-1.7304-1.7227v-3.8242c0-.6015-.4844-1.086-1.086-1.086h-3.3007c-.6602 0-1.1992-.5312-1.1992-1.1913h-34.047c0 .6601-.535 1.1914-1.1952 1.1914h-3.3047c-.5977 0-1.086.4844-1.086 1.086v3.8241c0 .9532-.7734 1.7227-1.7265 1.7227h-11.836c-.957 0-1.7304-.7695-1.7304-1.7227v-25.0078c0-.3125.0625-.621.1797-.9101.6758-1.6602 3.1719-7.4727 5.8164-9.6953"/></g><path fill="currentColor" d="M100.3906 198.4883h-.9023l.4531-.8516ZM59.9883 195.8008h-.6914l.3476-.6563Zm0 0"/><g clip-path="url(#d)"><path fill="currentColor" d="M34.086 207.2695h4.4257c.0781 0 .1446-.0625.1446-.1406a.1442.1442 0 0 0-.1446-.1445H34.086a.1442.1442 0 0 0-.1445.1445c0 .0781.0664.1406.1445.1406Zm3.2109 9.6914s1.6133 4.125 4.0273 5.0196c2.418.8906 4.6016 1 4.8828.246.2774-.7538-1.453-2.0859-3.871-2.9765-2.4141-.8906-5.0391-2.289-5.0391-2.289Zm1.0234 11.832c1.7578 0 2.629.1055 3.0547-.1445.336-.1953.3945-.7578.3945-.7578-2.543-.0586-4.8125-1.7851-4.8125-1.7851s-1.9101 2.6875 1.3633 2.6875Zm18.5078-32.2968h2.1055l.1602-.3008h1.1054l.1563.3008h.996l-1.1874-1.8242h-1.0664l-1.1836 1.8242-1.086-.9492.9883-.875h-1.0742l-.5586.5625-.543-.5625h-1.0664l.9844.8828-1.0781.9414h1.0976l.625-.586Zm5.3438 0h.9765v-1.375h.9961v-.4492h-2.9687v.4492h.996Zm-8.043-1.8242h-.9766v1.8242h.9766Zm-20.121 11.5664h4.328c.6602 0 1.254.4062 1.4922 1.0195l.293.7578 2.0117-6.6484s.7461-3.2695 4.1094-3.4688c2.1797-.1328 6.6992-.25 9.6016-.3164h-5.1836c-.4063 0-.6524-.543-.4297-.957l1.25-2.336c.1562-.289.4218-.4609.703-.4609H64.836c.2813 0 .547.1719.7032.461l1.25 2.3359c.2226.414-.0235.957-.4297.957h-5.1836c2.9023.0664 7.4219.1836 9.6015.3164 3.3633.1993 4.1094 3.4688 4.1094 3.4688l1.086 3.5898c-.043.1328-.0782.2657-.1094.3868l-.668 2.2109-1.7148-6.0156c-1.2657-2.6953-4.2813-2.668-4.2813-2.668l-7.7578-.2266v.125c0 .3985-.3242.7188-.7187.7188h-4.4258a.7169.7169 0 0 1-.7188-.7188v-.125l-7.7578.2266s-3.0156-.0274-4.2812 2.668l-2.5313 8.8789c-.2812.9804.457 1.953 1.4766 1.953h22.0468a2.111 2.111 0 0 0-.0468.4493v2.9531c0 1.211.9883 2.1914 2.1992 2.1914h3.3555c-2.0977 2.25-3.879 6.2774-4.5899 8.0313a3.35 3.35 0 0 0-.2578 1.293v.1718H50.0625l1.121 1.2461h14.008v1.547h-17.715c0 .4296-.3476.7733-.7773.7733h-2.1406c-.3867 0-.7031.3165-.7031.7032v2.4804c0 .6172-.5 1.1172-1.1211 1.1172h-7.6719c-.6172 0-1.121-.5-1.121-1.1172V218c0-.1992.039-.4023.117-.5898.4376-1.0743 2.0587-4.8438 3.7696-6.2813a.4644.4644 0 0 0 .164-.3555v-.582c0-.25-.203-.457-.457-.457h-3.5273a.6077.6077 0 0 1-.6094-.6094v-2.2773c0-.336.2696-.6094.6094-.6094"/></g><path fill="currentColor" d="M72.2773 241.289c2.2813 0 3.4102.1407 3.961-.1835.4375-.254.5117-.9844.5117-.9844-3.2969-.0781-6.2383-2.3164-6.2383-2.3164s-2.4805 3.4844 1.7656 3.4844Zm10.2344-8.5156c.3594-.9765-1.8867-2.707-5.0234-3.8632-3.1328-1.1563-6.5352-2.9727-6.5352-2.9727s2.0899 5.3594 5.2227 6.5117c3.1367 1.1563 5.9726 1.3008 6.336.3242Zm-9.9844-19.7773h-5.7421c-.1016 0-.1875.082-.1875.1836 0 .1016.0859.1875.1875.1875h5.7421c.1016 0 .1836-.086.1836-.1875a.1834.1834 0 0 0-.1836-.1836Zm23.7579-13.6055h2.7343l.207-.3906h1.4376l.1992.3906h1.293l-1.5391-2.3672h-1.379l-1.539 2.3672-1.4101-1.2344 1.2812-1.1328h-1.3945l-.7227.7305-.707-.7305h-1.379l1.2735 1.1485-1.3945 1.2187h1.4219l.8086-.7617Zm6.9375 0h1.2656v-1.7812h1.293v-.586h-3.8516v.586h1.293Zm-10.4336-2.3672h-1.2696v2.3672h1.2696Zm-21.1485 21.3477a.5879.5879 0 0 0 .2149-.457v-.754c0-.328-.2696-.5976-.5977-.5976h-4.5742c-.4375 0-.793-.3516-.793-.789v-2.9532c0-.4375.3555-.793.793-.793h5.6133c.8554 0 1.625.5274 1.9375 1.3243l.3789.9804 2.6094-8.625s.9687-4.2382 5.332-4.5c2.832-.168 8.6953-.3203 12.457-.4062h-6.7226c-.5274 0-.8477-.711-.5586-1.2461l1.621-3.0234c.2032-.375.547-.6016.9141-.6016h16.4102c.371 0 .7148.2266.914.6016l1.625 3.0234c.2852.5351-.0312 1.246-.5585 1.246h-6.7266c3.7656.086 9.6289.2384 12.461.4063 4.3593.2618 5.328 4.5 5.328 4.5l1.2618 4.164c-.5977.4845-1.0977 1.0274-1.5118 1.59l-1.5742-5.5313c-1.6406-3.4961-5.5547-3.457-5.5547-3.457l-10.0664-.293v.164c0 .5118-.418.9297-.9296.9297h-5.7422c-.5157 0-.9336-.418-.9336-.9297v-.164l-10.0664.293s-3.9102-.0391-5.5508 3.457l-3.2852 11.5234c-.3633 1.2696.5938 2.5313 1.914 2.5313h38.6759l-.5274 1.746c-.6562-.4843-1.4648-.7656-2.3125-.7656h-6.6719c-1.2968 0-2.3476 1.0508-2.3476 2.3399v3.5156c0 1.293 1.0508 2.3399 2.3477 2.3399h4.625c-2.6485 2.5117-4.957 7.7226-5.8516 9.918a4.136 4.136 0 0 0-.1602.4843H87.5117l1.4531 1.6172h16.3711v2.0078H84.1563c0 .5547-.4493 1.004-1.0079 1.004H80.375c-.5078 0-.914.4062-.914.91v3.2188c0 .8008-.6524 1.4492-1.4532 1.4492h-9.957c-.8008 0-1.4531-.6484-1.4531-1.4492v-21.0312c0-.2618.0507-.5196.1523-.7657.5664-1.3945 2.668-6.2812 4.8906-8.1523M146.3945 205.254l.5313 1.0116h-1.0703Zm0 0"/><path d="M176.5303 176.2431c-4.125-1.5195-8.3438-3.582-12.6563-6.1875-.4492-.2695-.8984-.4062-1.3437-.4062-1.168 0-1.9766.543-2.422 1.625l-5.9218 11.8437c-.2695.5313-.4062 1.0235-.4062 1.4688 0 .8984.496 1.6172 1.4843 2.1562 9.0625 4.9375 16.5977 7.7188 22.6094 8.3438 2.5078.1797 4.3946.2656 5.6563.2656 5.3828 0 10.2734-.8477 14.6718-2.5469 4.125-1.6133 7.4415-4.2578 9.9532-7.9375 2.5078-3.6875 4.2578-8.086 5.25-13.203v-.125c.082-.625.125-1.6134.125-2.9688 0-9.957-5.5625-18.3008-16.6875-25.0313l-4.172-2.5469c-2.0624-1.2578-3.8554-2.6484-5.375-4.1718-2.5116-2.25-3.7655-4.8516-3.7655-7.8125 0-1.7891.4453-3.5391 1.3437-5.25 1.0703-2.7813 2.9102-3.9454 5.5156-3.5h.1407c.9765.0937 1.6015.9492 1.875 2.5625.2695 3.3242.4062 6.5078.4062 9.5468 0 1.8047.8946 2.7032 2.6875 2.7032h15.6094c1.8008 0 2.7031-.8516 2.7031-2.5625.1758-2.875.2656-5.3438.2656-7.4063 0-1.789-.0898-3.4062-.2656-4.8437-.3672-4.3946-1.5312-7.8477-3.5-10.3594-3.9492-4.8438-10.1406-7.2656-18.5781-7.2656-2.336 0-4.5781.1367-6.7344.4062-9.8672 1.168-17.043 5.6992-21.5312 13.5938-3.2305 5.3867-4.8438 10.9492-4.8438 16.6875 0 2.3359.2696 4.7109.8125 7.125.8946 3.7734 2.5547 6.7773 4.9844 9.0156 0 0 .0195.0273.0625.0781a.7151.7151 0 0 0 .0625.0625c4.3945 3.6797 7.039 5.7422 7.9375 6.1875l.2812.1406 2.6875 1.6094c4.5704 2.7813 7.5313 4.711 8.875 5.7813 2.7813 2.0742 4.172 4.6796 4.172 7.8125 0 1.9804-.6055 3.5078-1.8126 4.578-1.211 1.0743-2.8047 1.6095-4.7812 1.6095-1.6172 0-3.4063-.3594-5.375-1.0782Zm21.7968-57.8593h.547v.2656h-.547Zm3.5 4.578c-.0937.086-.2109.125-.3437.125-.125 0-.1484-.0859-.0625-.2655l.0625-.0625.0781-.0782.125-.2656s.0196.0273.0625.0781c.0508.043.0781.0625.0781.0625l.2657.125Zm-2.953 5.375c0 .1798-.047.2657-.1407.2657h-.6719c0-.3516.2227-.5312.6719-.5312Zm-3.2345 23.422c.1758.1796.2657.4023.2657.6718h-1.0782l-.1406-.4687c-.086-.3125-.039-.6953.1406-1.1563h.8125c.0938.0938.1407.3242.1407.6875Zm-5.7812 0v-.547h1.2031v.547Zm7.3906.7968-.2656.1407v.1406l-1.0781.5312c-.3555-.539-.5313-.8125-.5313-.8125.1758-.082.4414-.125.7969-.125h.5469Zm-3.7656 4.5782c.1758.1875.2656.371.2656.5468l-.2656.125-.2656-.125h-.2657v-.953l.2657.2812Zm7.2656 2.0156-.2656.1406h-.8125c0-.3516.2695-.664.8125-.9375l.5312.5313v.2656Zm-2.0156 2.1562v-.4062l1.2187.1406v.5469Zm7.4062 2.5625c.082 0 .125.0899.125.2657 0 .543-.2656.8125-.7968.8125-.543 0-.9024-.2227-1.0782-.672l.2657-.6718h1.203c0 .086.047.125.1407.125Zm-6.0625.5313-.5312-.2656.4062-.4063.5313.1406Zm2.0157 3.2344c0 .1796.1328.2656.4062.2656 0 .1875-.043.2812-.125.2812v.2657c-.0937 0-.1406.043-.1406.125h-.9375l-.1406-.125h-.1407l-.2656-.1407.2656-.9375h.547Zm5.5156.4062.4062.1406-.4062.2657-.2656.125c-.2735.2734-.4961.4062-.672.4062v-.5312c-.0858-.1758-.039-.3594.1407-.547h.5313Zm-4.1719 2.4219c-.3554 0-.6484-.086-.875-.2656-.2187-.1758-.2812-.3985-.1875-.672.082 0 .211-.0195.3906-.0624.1875-.0508.457-.0781.8125-.0781l.2657-.1407c.0937-.082.2734-.125.5468-.125l.125.672-.5312.4062Zm-.6719 2.1562c.7188.7188 1.0782 1.1211 1.0782 1.2032 0 .1875-.043.3242-.125.4062v.2656h-.2813l-.2656.1407h-.4063c-.2617 0-.4843-.086-.6718-.2657h-.4063s-.1562-.0195-.4687-.0625c-.3125-.0508-.7344-.1172-1.2657-.203-.1875-.1876-.2812-.3204-.2812-.4063l-.125-.1407v-.5312h.4062c.4454 0 .8008.043 1.0625.125.1875.0937.4102.1406.672.1406h.1405c.1758 0 .3125-.0469.4063-.1406l.2656-.125c0-.0938.086-.2266.2656-.4063Zm4.047 1.0782v.2656h-1.0782c.2695-.2696.4062-.539.4062-.8125h.9375Zm-1.4845 1.203v-.7968h.672v.7969Zm-2.953.672c0 .1875-.2305.414-.6876.6718l-.9375.547h-.5312c-.543 0-.9024-.086-1.0782-.2657v-.2813c0-.2578.2696-.5234.8125-.7968.2579 0 .4375-.047.5313-.1407.4453-.2695.625-.3593.5312-.2656h1.3594Zm3.8905.953c.2696.2618.4063.4376.4063.5313 0 .4492-.2266.672-.6719.672l-.5312.4062c-.3672-.4454-.547-.8047-.547-1.0782 0-.539.2227-.8515.672-.9375Zm-3.7656 1.0626c-.4492.0937-.9453.0937-1.4844 0v-.5313l.547-.4062h.8124c.082 0 .125.1367.125.4062Zm-27.4531.1406v-.4062h.8125v.4062Zm24.625 1.75-.2656.2656h-.2657c0 .0938-.0898.1407-.2656.1407v-.547c0-.1757.086-.3515.2656-.5312.082 0 .1446.0274.1875.0782.0508.043.0782.0625.0782.0625l.1406.2656Zm-4.5781 1.6094c.1875.0937.2812.3672.2812.8125-.3672 0-.7265-.086-1.0781-.2656.082 0 .1445-.0196.1875-.0625l.0781-.0782c0-.082.086-.125.2656-.125v-.1406c0-.0937.086-.1406.2657-.1406Zm7.4062.2812c.0938.086.1406.2149.1406.3907-.2734 0-.8125-.129-1.625-.3907l1.4844-.2812Zm-24.7656.5313-.5313-.2656.4063-.4063.5312.1406Zm18.1719.8125c.3632 0 .586.043.6718.125l.672.1406c0 .4492-.3595.6719-1.0782.6719 0-.0938-.1797-.1406-.5313-.1406Zm-2.6875.9375v-.6719h.5312v.6719Zm-12.25 2.4219v-.4063h.9375v.4063Zm14.6718.4062c-.1796-.0937-.2656-.2266-.2656-.4062 0-.2696.086-.4063.2656-.4063h1.0782ZM290.0748 119.2271c.2383 1.6797.3594 3.3125.3594 4.9063 0 4.543-.918 8.8515-2.75 12.9219-1.0313 1.9921-2.1055 3.7421-3.2188 5.25.2383-.3946.3594-.875.3594-1.4375 0-.6329-.043-1.1094-.125-1.422-.086-.3202-.125-.7226-.125-1.203 0-.3946.082-.5938.25-.5938h-.125c0-.5625-.043-.961-.125-1.2031 0-.4766.1602-.914.4844-1.3125-.4805-.082-.6406-.2813-.4844-.5938 0-.3203-.039-.5195-.1094-.5937v8.3594c-1.918 2.6367-4.3125 4.75-7.1875 6.3437h-.1093c-3.836 2.0742-8.1016 3.7461-12.797 5.0156-1.3554.4805-3.2304.922-5.625 1.3282l-1.078.2343-.9532.125h-.125c0-.164-.078-.25-.2343-.25-.3985 0-.5938.1211-.5938.3594 0 .086.0352.125.1094.125l-3.7031.4844-.7188 21.2812c0 1.5938-.7969 2.3907-2.3906 2.3907H234.356c-.7188 0-1.297-.2383-1.7344-.7188-.4453-.4766-.6719-1.0781-.6719-1.7969l.4844-8.9687.2344.25c.2422-.082.6406-.3203 1.203-.7188l-.3593-.25h-.5937l-.4844.3594.2344-6.3281h.3593c0-.164-.078-.25-.2343-.25l-.125-.1094 2.6406-56.5781c.1562-1.1953.789-1.9102 1.9062-2.1406 14.75-3.0313 23.0391-4.6641 24.875-4.9063.3204 0 .7579-.0195 1.3125-.0625.5625-.039 1.2032-.1406 1.922-.2969l3.2343-.125h.1094c6.2187.3243 11.1601 2.4805 14.828 6.4688 3.6642 3.9805 5.8595 9.1992 6.5782 15.6562Zm-50.5781-9.328v-.3595h-.25v.3594Zm13.625 27.0312c2.5508-.3204 4.4687-.6407 5.75-.9532 3.9062-1.2812 6.8516-2.7578 8.8437-4.4375 1.5079-1.2695 2.504-2.9414 2.9844-5.0156.082-.3945.125-.9922.125-1.7969 0-2.3125-.5234-4.3828-1.5625-6.2187-1.0312-1.832-2.5078-2.75-4.4219-2.75-.4804 0-.8398.043-1.078.125l-9.4376 1.9062Zm24.5156-20.4532v.2344h.4844v-.2344Zm-6.4531.9532c-.086.0859-.125.168-.125.25 0 .0742.039.1093.125.1093.082.168.2031.25.3594.25.1562 0 .2343-.082.2343-.25l.25-.1093Zm-33.125 1.203v-.5937h-.2344v.5938Zm36.7187 0v-.3593h-.3593v.3594Zm.7188 3.9376c0-.3945-.3242-.754-.9688-1.0781v1.4375c.3204 0 .6446-.1172.9688-.3594Zm.2344 2.3906c.3125-.3125.4687-.5078.4687-.5937l-.2344-.5938-.4687.3594-.0625.0625-.0625.0625h-.125c-.3125.1562-.5547.3125-.7188.4687Zm1.9062.9688c-.2422-.5625-.3984-.8438-.4687-.8438l-.25-.125-.2344.125c0 .3242.1601.4844.4844.4844Zm-4.2969 1.7968c0-.2382-.043-.3984-.125-.4843l-.2343-.125h-.4844v.6093Zm-.25 1.422c.3204-.3126.4844-.586.4844-.8282-.3242 0-.5234-.039-.5937-.125l-.4844.3594c-.2422.2421-.3203.4023-.2344.4843Zm1.4375-.2345c.6446 0 .9688-.1953.9688-.5937h-.9688Zm10.297 1.5625c.0702-.082.1093-.203.1093-.3593 0-.3204-.1563-.6797-.4688-1.0782-.168.1563-.168.3125 0 .4688 0 .2422-.043.4023-.125.4844h-.8437c.164.2421.086.3593-.2344.3593 0 0 .2383.0782.7188.2344l.5937.125s.0195-.0351.0625-.1094c.039-.082.1016-.125.1875-.125Zm-11.0157-.4843c.6445.2421 1.207.3593 1.6875.3593-.4805-.3945-.7188-.5937-.7188-.5937-.4062 0-.6484.039-.7187.1094Zm.7187.4843-.4687.2344.7187.4688.2344-.2344Zm9.8125.4688v2.75h.3594v-2.75Zm-12.078 3.3437c-.3985-.4687-.836-.7851-1.3126-.953Zm.953 4.547v.25h1.2032v-.25Zm-2.0312 1.5624c0-.1562-.1016-.289-.2969-.4062-.1992-.125-.3828-.1875-.5469-.1875l-.2343.703Zm-2.9844 0h.7188v-.2344h-.7188Zm-26.4375 1.7969c-.1562-.2383-.3555-.4414-.5937-.6094-.2422-.1562-.3594-.3125-.3594-.4687-.2422.2421-.4805.3593-.7188.3593 0 .0743-.078.1094-.2343.1094.6328.086 1.0703.289 1.3125.6094Zm26.6719-.9688c-.1563.168-.2344.25-.2344.25h-.125c-.1562.0743-.2344.1953-.2344.3594 0 .2422.0352.3594.1094.3594h.125c.1563.1562.3516.2344.5938.2344.4062 0 .6445-.1172.7187-.3594v-.5938Zm-29.1875.9688.25-.3594c.0703-.082.1094-.2031.1094-.3594h-.5938v.2344Zm17.5781-.4844h-.3437v.5938h.3437Zm-16.9687 1.9063c.3125 0 .5859-.0352.828-.1094.4767-.1563.7579-.2344.8438-.2344l-.5937-.4844c-.3242-.1562-.5274-.2343-.6094-.2343-.1562 0-.3984.078-.7187.2343l-.5938.4844c.1563.0742.2735.1328.3594.1719.082.043.082.0625 0 .0625Zm31.203-.9532-.2343.6094.4844.1094.2344-.4688Zm-7.7655 1.797c-.1563 0-.3203.0624-.4844.1874-.1563.1172-.2344.25-.2344.4063l.8281.125v.5937h.7188l.3594-.1094c-.3125-.3203-.672-.4843-1.0782-.4843l.125-.3594c0-.082-.078-.2031-.2343-.3594Zm4.4218.7187c0-.082-.043-.125-.125-.125v-.2344s-.0234-.0195-.0625-.0625c-.0312-.039-.0468-.0625-.0468-.0625l-.7188.4844Zm-28.578-.3594h-.25l.3593.9531h.25Zm26.4218 1.2031c.164-.164.25-.3281.25-.4844 0-.1562-.086-.3164-.25-.4843h-.8281c.2382.5625.5156.8867.828.9687Zm-26.3125 0-.3594.3594.25.1094.3594-.4688Zm18.6562 0v.8281l.9688-.125Zm-15.6562.1094v.5937h.7187v-.5937Zm22.2344.4844c-.3985.2421-.7578.5586-1.0782.953h.9688l1.7969.3595v-.2344l-.125-.125-.125-.2344h-.1094l-.125.1094-.4844.125h-.4687Zm2.5156 1.9062c0-.3125-.1992-.586-.5938-.8281-.2421.3125-.2812.6328-.125.9531h.4844Zm-2.9844 1.3125c.2383 0 .4375.086.5938.25.3945-.5625.5937-.8789.5937-.9531l-.1094-.4844s-.121-.1172-.3593-.3594l-.25.125h-.1094l-.0625.0625c-.043.0313-.0625.047-.0625.047l-.2344.125Zm-26.5469-.8281h.5938l-.125-.2344s-.1211-.1172-.3594-.3594v.3594Zm30.25.4844v.3437l.9532-.2344v-.3593Zm-11.3593.4687c-.3985.3984-.5938.6797-.5938.8438l.5938.3593.7187-.6093Zm9.203.4844c0 .2422.2032.3594.6095.3594h.2343c.0704-.082.1094-.2422.1094-.4844v-.3594c-.6367 0-.9531.164-.9531.4844Zm-24.3905-.3594-.7188.2344v.2344l.8281-.2344Zm25.828 1.5469c.1563-.2383.1563-.4375 0-.5938-.3983.1563-.5937.3555-.5937.5938Zm-1.078.25c0-.2383-.1211-.3985-.3594-.4844-.3984 0-.5938.164-.5938.4844Zm-27.5.2344v.7187h.2343v-.7187Zm16.9843 1.3125v.4843h.7188v-.4843Zm-16.875.125c-.0742.3125-.1523.5898-.2343.828-.086.2423-.1641.4806-.2344.7188-.086.2422-.168.4805-.25.7188a2.4337 2.4337 0 0 0-.1094.7187c0 .1563.039.2774.125.3594.1563.1563.1914.2774.1094.3594-.3984.086-.5156.3242-.3594.7187.164.4805.164.797 0 .9532 0 0-.0781.0859-.2344.25l-.0625.0625c-.043.0312-.0625.0468-.0625.0468-.1562.086-.2343.2032-.2343.3594 0 .1563.039.2774.125.3594l.0468.1875c.0391.1172-.0156.2148-.1718.2969l-.2344.1093h-.125c.2383.4063.3164.7305.2344.9688-.3125.875-.3907 1.4687-.2344 1.7812.082.168.1016.3125.0625.4375-.043.1172-.1055.172-.1875.172-.1563.3983-.2344.875-.2344 1.4374 0 .5547.039.9492.125 1.1875-.2422.086-.4023.2461-.4844.4844l-.4843.5937v.3594c0 1.1172-.0391 1.8711-.1094 2.2656-.168.5625-.2734 1.0274-.3125 1.3907-.0313.3554-.0469.6523-.0469.8906 0 .2422-.043.4375-.125.5937l-.2344.4844c0 .3984.0547.9961.172 1.7969.125.793.3046 1.3086.5468 1.5469.4766.1562 1.0351.2343 1.6719.2343l1.5468.25Zm-4.2968 4.1875v-.3594h-.7188v.3594Zm0 2.0312c-.1563-.164-.375-.25-.6563-.25-.2812 0-.4219.086-.4219.25l.3594.3594c.2383 0 .4766-.1172.7188-.3594Zm-.125 1.4375c.164 0 .25-.082.25-.25-.4805-.1562-.8828-.1562-1.2032 0l.5938.3594Zm0 .9531c-.3985-.2382-.5938-.4765-.5938-.7187l-.125.3594c0 .1562-.039.2773-.1094.3593Zm10.6406 1.0782c0 .3125.082.6328.25.953v-1.3124Zm-11.8281 1.3125v.3593h.5937v-.3593Zm11.828 1.1875-.1093.3593c0 .168-.043.25-.125.25.2383.3985.2813.5938.125.5938-.086-.082-.1484-.1016-.1875-.0625-.043.043-.0625.1055-.0625.1875 0 .3125.039.5742.125.7812.082.1993.2031.4532.3594.7657l.125-4.0625Zm-11.953 3.828-.3594.125v.125l.4844-.125Zm16.3906 9.5782h-.25l.125.3594h.2344Zm0 0"/></svg>