<svg xmlns="http://www.w3.org/2000/svg" xmlns:xlink="http://www.w3.org/1999/xlink" width="500" zoomAndPan="magnify" viewBox="0 0 375 374.999991" height="500" preserveAspectRatio="xMidYMid meet" version="1.0"><defs><g/><clipPath id="89fd75ed5d"><path d="M 183.394531 203 L 261 203 L 261 267.296875 L 183.394531 267.296875 Z M 183.394531 203 " clip-rule="nonzero"/></clipPath><clipPath id="6236e38bb5"><path d="M 290 193.796875 L 333.394531 193.796875 L 333.394531 236 L 290 236 Z M 290 193.796875 " clip-rule="nonzero"/></clipPath><clipPath id="fa8635515e"><path d="M 105 203 L 183.394531 203 L 183.394531 267.296875 L 105 267.296875 Z M 105 203 " clip-rule="nonzero"/></clipPath><clipPath id="e2a84c336b"><path d="M 33.394531 193.796875 L 76 193.796875 L 76 236 L 33.394531 236 Z M 33.394531 193.796875 " clip-rule="nonzero"/></clipPath></defs><rect x="-37.5" width="450" fill="#ffffff" y="-37.499999" height="449.999989" fill-opacity="1"/><rect x="-37.5" width="450" fill="#ffffff" y="-37.499999" height="449.999989" fill-opacity="1"/><g clip-path="url(#89fd75ed5d)"><path fill="#231f20" d="M 253.292969 257.164062 C 250.578125 257.164062 249.238281 257.328125 248.582031 256.945312 C 248.0625 256.640625 247.972656 255.773438 247.972656 255.773438 C 251.894531 255.683594 255.394531 253.019531 255.394531 253.019531 C 255.394531 253.019531 258.339844 257.164062 253.292969 257.164062 Z M 241.121094 247.035156 C 240.691406 245.871094 243.367188 243.816406 247.09375 242.441406 C 250.820312 241.066406 254.867188 238.90625 254.867188 238.90625 C 254.867188 238.90625 252.382812 245.277344 248.65625 246.652344 C 244.925781 248.027344 241.554688 248.199219 241.121094 247.035156 Z M 222.140625 231.828125 L 197.417969 231.828125 C 195.84375 231.828125 194.707031 230.324219 195.140625 228.816406 L 199.046875 215.113281 C 200.996094 210.957031 205.652344 211.003906 205.652344 211.003906 L 217.621094 210.652344 L 217.621094 210.847656 C 217.621094 211.457031 218.117188 211.953125 218.730469 211.953125 L 225.554688 211.953125 C 226.167969 211.953125 226.664062 211.457031 226.664062 210.847656 L 226.664062 210.652344 L 238.632812 211.003906 C 238.632812 211.003906 243.289062 210.957031 245.238281 215.113281 L 249.144531 228.816406 C 249.578125 230.324219 248.4375 231.828125 246.863281 231.828125 Z M 233.445312 257.03125 L 210.835938 257.03125 L 209.109375 255.109375 L 235.175781 255.109375 Z M 203.160156 247.035156 C 202.730469 248.199219 199.359375 248.027344 195.628906 246.652344 C 191.902344 245.277344 189.417969 238.90625 189.417969 238.90625 C 189.417969 238.90625 193.460938 241.066406 197.191406 242.441406 C 200.917969 243.816406 203.59375 245.871094 203.160156 247.035156 Z M 195.703125 256.945312 C 195.046875 257.328125 193.707031 257.164062 190.992188 257.164062 C 185.945312 257.164062 188.890625 253.019531 188.890625 253.019531 C 188.890625 253.019531 192.386719 255.683594 196.3125 255.773438 C 196.3125 255.773438 196.222656 256.640625 195.703125 256.945312 Z M 184.460938 223.957031 C 184.339844 223.957031 184.238281 223.859375 184.238281 223.738281 C 184.238281 223.613281 184.339844 223.515625 184.460938 223.515625 L 191.289062 223.515625 C 191.410156 223.515625 191.507812 223.613281 191.507812 223.738281 C 191.507812 223.859375 191.410156 223.957031 191.289062 223.957031 Z M 217.757812 207.339844 L 219.589844 204.523438 L 221.234375 204.523438 L 223.0625 207.335938 L 224.738281 205.871094 L 223.210938 204.523438 L 224.871094 204.523438 L 225.730469 205.386719 L 226.570312 204.523438 L 228.214844 204.523438 L 226.695312 205.886719 L 228.355469 207.339844 L 226.664062 207.339844 L 225.703125 206.433594 L 224.738281 207.339844 L 221.488281 207.339844 L 221.242188 206.875 L 219.535156 206.875 L 219.296875 207.339844 Z M 216.492188 207.339844 L 214.988281 207.339844 L 214.988281 205.21875 L 213.453125 205.21875 L 213.453125 204.523438 L 218.027344 204.523438 L 218.027344 205.21875 L 216.492188 205.21875 Z M 228.898438 204.523438 L 230.40625 204.523438 L 230.40625 207.339844 L 228.898438 207.339844 Z M 252.996094 223.515625 L 259.824219 223.515625 C 259.945312 223.515625 260.046875 223.613281 260.046875 223.738281 C 260.046875 223.859375 259.945312 223.957031 259.824219 223.957031 L 252.996094 223.957031 C 252.875 223.957031 252.773438 223.859375 252.773438 223.738281 C 252.773438 223.613281 252.875 223.515625 252.996094 223.515625 Z M 254.050781 229.910156 C 253.890625 229.773438 253.792969 229.574219 253.792969 229.367188 L 253.792969 228.46875 C 253.792969 228.078125 254.113281 227.761719 254.503906 227.761719 L 259.945312 227.761719 C 260.464844 227.761719 260.886719 227.339844 260.886719 226.820312 L 260.886719 223.304688 C 260.886719 222.785156 260.464844 222.367188 259.945312 222.367188 L 253.269531 222.367188 C 252.25 222.367188 251.335938 222.992188 250.96875 223.941406 L 250.515625 225.109375 L 247.410156 214.847656 C 247.410156 214.847656 246.257812 209.808594 241.070312 209.5 C 237.703125 209.296875 230.734375 209.117188 226.253906 209.011719 L 234.253906 209.011719 C 234.878906 209.011719 235.257812 208.171875 234.917969 207.535156 L 232.988281 203.933594 C 232.75 203.488281 232.339844 203.21875 231.898438 203.21875 L 212.382812 203.21875 C 211.945312 203.21875 211.535156 203.488281 211.296875 203.933594 L 209.367188 207.535156 C 209.027344 208.171875 209.40625 209.011719 210.03125 209.011719 L 218.03125 209.011719 C 213.550781 209.117188 206.578125 209.296875 203.214844 209.5 C 198.027344 209.808594 196.875 214.847656 196.875 214.847656 L 193.769531 225.109375 L 193.316406 223.941406 C 192.949219 222.992188 192.035156 222.367188 191.011719 222.367188 L 184.339844 222.367188 C 183.820312 222.367188 183.398438 222.785156 183.398438 223.304688 L 183.398438 226.820312 C 183.398438 227.339844 183.820312 227.761719 184.339844 227.761719 L 189.78125 227.761719 C 190.171875 227.761719 190.488281 228.078125 190.488281 228.46875 L 190.488281 229.367188 C 190.488281 229.574219 190.394531 229.773438 190.234375 229.910156 C 187.589844 232.132812 185.09375 237.945312 184.417969 239.605469 C 184.300781 239.894531 184.238281 240.203125 184.238281 240.515625 L 184.238281 265.523438 C 184.238281 266.476562 185.011719 267.246094 185.96875 267.246094 L 197.804688 267.246094 C 198.757812 267.246094 199.535156 266.476562 199.535156 265.523438 L 199.535156 261.699219 C 199.535156 261.097656 200.019531 260.613281 200.621094 260.613281 L 203.921875 260.613281 C 204.582031 260.613281 205.121094 260.082031 205.121094 259.421875 L 239.164062 259.421875 C 239.164062 260.082031 239.703125 260.613281 240.363281 260.613281 L 243.664062 260.613281 C 244.265625 260.613281 244.75 261.097656 244.75 261.699219 L 244.75 265.523438 C 244.75 266.476562 245.523438 267.246094 246.480469 267.246094 L 258.316406 267.246094 C 259.269531 267.246094 260.046875 266.476562 260.046875 265.523438 L 260.046875 240.515625 C 260.046875 240.203125 259.984375 239.894531 259.867188 239.605469 C 259.191406 237.945312 256.691406 232.132812 254.050781 229.910156 " fill-opacity="1" fill-rule="nonzero"/></g><path fill="#231f20" d="M 266.398438 198.488281 L 267.296875 198.488281 L 266.84375 197.636719 Z M 266.398438 198.488281 " fill-opacity="1" fill-rule="nonzero"/><path fill="#231f20" d="M 306.800781 195.800781 L 307.492188 195.800781 L 307.144531 195.144531 Z M 306.800781 195.800781 " fill-opacity="1" fill-rule="nonzero"/><g clip-path="url(#6236e38bb5)"><path fill="#231f20" d="M 332.703125 207.269531 L 328.277344 207.269531 C 328.199219 207.269531 328.132812 207.207031 328.132812 207.128906 C 328.132812 207.046875 328.199219 206.984375 328.277344 206.984375 L 332.703125 206.984375 C 332.78125 206.984375 332.847656 207.046875 332.847656 207.128906 C 332.847656 207.207031 332.78125 207.269531 332.703125 207.269531 Z M 329.488281 216.960938 C 329.488281 216.960938 327.878906 221.085938 325.460938 221.980469 C 323.046875 222.871094 320.859375 222.980469 320.582031 222.226562 C 320.300781 221.472656 322.035156 220.140625 324.453125 219.25 C 326.867188 218.359375 329.488281 216.960938 329.488281 216.960938 Z M 328.46875 228.792969 C 326.710938 228.792969 325.839844 228.898438 325.414062 228.648438 C 325.078125 228.453125 325.019531 227.890625 325.019531 227.890625 C 327.5625 227.832031 329.832031 226.105469 329.832031 226.105469 C 329.832031 226.105469 331.742188 228.792969 328.46875 228.792969 Z M 309.960938 196.496094 L 307.855469 196.496094 L 307.695312 196.195312 L 306.585938 196.195312 L 306.433594 196.496094 L 305.4375 196.496094 L 306.625 194.671875 L 307.691406 194.671875 L 308.875 196.496094 L 309.960938 195.546875 L 308.972656 194.671875 L 310.046875 194.671875 L 310.605469 195.234375 L 311.148438 194.671875 L 312.214844 194.671875 L 311.230469 195.554688 L 312.308594 196.496094 L 311.207031 196.496094 L 310.585938 195.910156 Z M 304.617188 196.496094 L 303.640625 196.496094 L 303.640625 195.121094 L 302.644531 195.121094 L 302.644531 194.671875 L 305.613281 194.671875 L 305.613281 195.121094 L 304.617188 195.121094 Z M 312.65625 194.671875 L 313.636719 194.671875 L 313.636719 196.496094 L 312.65625 196.496094 Z M 332.78125 206.238281 L 328.453125 206.238281 C 327.792969 206.238281 327.199219 206.644531 326.960938 207.257812 L 326.667969 208.015625 L 324.65625 201.367188 C 324.65625 201.367188 323.910156 198.097656 320.546875 197.898438 C 318.367188 197.765625 313.847656 197.648438 310.941406 197.582031 L 316.128906 197.582031 C 316.535156 197.582031 316.78125 197.039062 316.558594 196.625 L 315.308594 194.289062 C 315.152344 194 314.886719 193.828125 314.605469 193.828125 L 301.953125 193.828125 C 301.667969 193.828125 301.402344 194 301.25 194.289062 L 300 196.625 C 299.777344 197.039062 300.023438 197.582031 300.429688 197.582031 L 305.613281 197.582031 C 302.710938 197.648438 298.191406 197.765625 296.007812 197.898438 C 292.648438 198.097656 291.902344 201.367188 291.902344 201.367188 L 290.816406 204.957031 C 290.859375 205.089844 290.894531 205.222656 290.925781 205.34375 L 291.59375 207.554688 L 293.308594 201.539062 C 294.570312 198.84375 297.589844 198.871094 297.589844 198.871094 L 305.347656 198.644531 L 305.347656 198.769531 C 305.347656 199.167969 305.667969 199.488281 306.066406 199.488281 L 310.492188 199.488281 C 310.886719 199.488281 311.207031 199.167969 311.207031 198.769531 L 311.207031 198.644531 L 318.96875 198.871094 C 318.96875 198.871094 321.984375 198.84375 323.25 201.539062 L 325.78125 210.417969 C 326.058594 211.398438 325.324219 212.371094 324.304688 212.371094 L 302.257812 212.371094 C 302.289062 212.515625 302.304688 212.664062 302.304688 212.820312 L 302.304688 215.773438 C 302.304688 216.984375 301.316406 217.964844 300.105469 217.964844 L 296.75 217.964844 C 298.847656 220.214844 300.625 224.242188 301.339844 225.996094 C 301.511719 226.410156 301.59375 226.84375 301.59375 227.289062 L 301.59375 227.460938 L 316.726562 227.460938 L 315.605469 228.707031 L 301.59375 228.707031 L 301.59375 230.253906 L 319.3125 230.253906 C 319.3125 230.683594 319.660156 231.027344 320.089844 231.027344 L 322.230469 231.027344 C 322.617188 231.027344 322.933594 231.34375 322.933594 231.730469 L 322.933594 234.210938 C 322.933594 234.828125 323.433594 235.328125 324.050781 235.328125 L 331.726562 235.328125 C 332.34375 235.328125 332.847656 234.828125 332.847656 234.210938 L 332.847656 218 C 332.847656 217.800781 332.804688 217.597656 332.730469 217.410156 C 332.292969 216.335938 330.671875 212.566406 328.960938 211.128906 C 328.855469 211.039062 328.792969 210.910156 328.792969 210.773438 L 328.792969 210.191406 C 328.792969 209.941406 329 209.734375 329.253906 209.734375 L 332.78125 209.734375 C 333.117188 209.734375 333.390625 209.460938 333.390625 209.125 L 333.390625 206.847656 C 333.390625 206.511719 333.117188 206.238281 332.78125 206.238281 " fill-opacity="1" fill-rule="nonzero"/></g><path fill="#231f20" d="M 294.511719 241.289062 C 292.230469 241.289062 291.101562 241.429688 290.550781 241.105469 C 290.113281 240.851562 290.039062 240.121094 290.039062 240.121094 C 293.335938 240.042969 296.277344 237.804688 296.277344 237.804688 C 296.277344 237.804688 298.757812 241.289062 294.511719 241.289062 Z M 284.277344 232.773438 C 283.914062 231.796875 286.164062 230.066406 289.296875 228.910156 C 292.433594 227.753906 295.835938 225.9375 295.835938 225.9375 C 295.835938 225.9375 293.746094 231.296875 290.609375 232.449219 C 287.476562 233.605469 284.640625 233.75 284.277344 232.773438 Z M 294.261719 212.996094 L 300.003906 212.996094 C 300.105469 212.996094 300.191406 213.078125 300.191406 213.179688 C 300.191406 213.28125 300.105469 213.367188 300.003906 213.367188 L 294.261719 213.367188 C 294.160156 213.367188 294.078125 213.28125 294.078125 213.179688 C 294.078125 213.078125 294.160156 212.996094 294.261719 212.996094 Z M 270.5 199.390625 L 267.765625 199.390625 L 267.5625 199 L 266.125 199 L 265.925781 199.390625 L 264.628906 199.390625 L 266.171875 197.023438 L 267.550781 197.023438 L 269.089844 199.390625 L 270.5 198.15625 L 269.214844 197.023438 L 270.609375 197.023438 L 271.335938 197.753906 L 272.042969 197.023438 L 273.421875 197.023438 L 272.144531 198.171875 L 273.542969 199.390625 L 272.121094 199.390625 L 271.308594 198.628906 Z M 263.566406 199.390625 L 262.300781 199.390625 L 262.300781 197.609375 L 261.007812 197.609375 L 261.007812 197.023438 L 264.855469 197.023438 L 264.855469 197.609375 L 263.566406 197.609375 Z M 273.996094 197.023438 L 275.265625 197.023438 L 275.265625 199.390625 L 273.996094 199.390625 Z M 295.148438 218.371094 C 295.011719 218.257812 294.933594 218.09375 294.933594 217.914062 L 294.933594 217.160156 C 294.933594 216.832031 295.199219 216.5625 295.53125 216.5625 L 300.105469 216.5625 C 300.542969 216.5625 300.898438 216.210938 300.898438 215.773438 L 300.898438 212.820312 C 300.898438 212.382812 300.542969 212.027344 300.105469 212.027344 L 294.492188 212.027344 C 293.632812 212.027344 292.863281 212.554688 292.554688 213.351562 L 292.175781 214.332031 L 289.566406 205.707031 C 289.566406 205.707031 288.59375 201.46875 284.234375 201.207031 C 281.402344 201.039062 275.539062 200.886719 271.773438 200.800781 L 278.5 200.800781 C 279.027344 200.800781 279.34375 200.089844 279.058594 199.554688 L 277.4375 196.53125 C 277.234375 196.15625 276.890625 195.929688 276.523438 195.929688 L 260.113281 195.929688 C 259.742188 195.929688 259.398438 196.15625 259.195312 196.53125 L 257.574219 199.554688 C 257.289062 200.089844 257.605469 200.800781 258.132812 200.800781 L 264.859375 200.800781 C 261.09375 200.886719 255.230469 201.039062 252.398438 201.207031 C 248.039062 201.46875 247.066406 205.707031 247.066406 205.707031 L 245.808594 209.871094 C 246.40625 210.355469 246.90625 210.898438 247.316406 211.460938 L 248.894531 205.929688 C 250.535156 202.433594 254.449219 202.472656 254.449219 202.472656 L 264.515625 202.179688 L 264.515625 202.34375 C 264.515625 202.855469 264.929688 203.273438 265.445312 203.273438 L 271.1875 203.273438 C 271.703125 203.273438 272.121094 202.855469 272.121094 202.34375 L 272.121094 202.179688 L 282.183594 202.472656 C 282.183594 202.472656 286.097656 202.433594 287.738281 205.929688 L 291.023438 217.453125 C 291.386719 218.722656 290.429688 219.984375 289.105469 219.984375 L 250.433594 219.984375 L 250.960938 221.730469 C 251.617188 221.246094 252.425781 220.964844 253.269531 220.964844 L 259.945312 220.964844 C 261.242188 220.964844 262.292969 222.015625 262.292969 223.304688 L 262.292969 226.820312 C 262.292969 228.113281 261.242188 229.160156 259.945312 229.160156 L 255.320312 229.160156 C 257.96875 231.671875 260.273438 236.882812 261.167969 239.078125 C 261.234375 239.234375 261.285156 239.398438 261.328125 239.5625 L 279.277344 239.5625 L 277.824219 241.179688 L 261.453125 241.179688 L 261.453125 243.1875 L 282.628906 243.1875 C 282.628906 243.742188 283.082031 244.191406 283.636719 244.191406 L 286.414062 244.191406 C 286.921875 244.191406 287.328125 244.597656 287.328125 245.101562 L 287.328125 248.320312 C 287.328125 249.121094 287.980469 249.769531 288.78125 249.769531 L 298.734375 249.769531 C 299.539062 249.769531 300.191406 249.121094 300.191406 248.320312 L 300.191406 227.289062 C 300.191406 227.027344 300.140625 226.769531 300.039062 226.523438 C 299.472656 225.128906 297.371094 220.242188 295.148438 218.371094 " fill-opacity="1" fill-rule="nonzero"/><path fill="#231f20" d="M 220.394531 205.253906 L 219.863281 206.265625 L 220.929688 206.265625 Z M 220.394531 205.253906 " fill-opacity="1" fill-rule="nonzero"/><g fill="#000000" fill-opacity="1"><g transform="translate(88.023529, 176.573002)"><g><path d="M 54.5625 -63.484375 C 55.96875 -63.566406 56.710938 -64.351562 56.796875 -65.84375 L 57.140625 -79.125 C 57.140625 -79.832031 56.90625 -80.421875 56.4375 -80.890625 C 55.96875 -81.359375 55.378906 -81.59375 54.671875 -81.59375 L 1.875 -80.546875 C 0.382812 -80.460938 -0.394531 -79.675781 -0.46875 -78.1875 L -1.171875 -60.4375 C -1.171875 -59.65625 -0.894531 -59.023438 -0.34375 -58.546875 C 0.195312 -58.078125 0.859375 -57.921875 1.640625 -58.078125 L 17.875 -61.140625 L 17.171875 -35.984375 C 17.398438 -36.140625 17.632812 -36.140625 17.875 -35.984375 L 17.875 -35.75 C 17.875 -35.664062 17.796875 -35.625 17.640625 -35.625 L 17.171875 -35.859375 L 16.703125 -21.40625 L 16.8125 -21.40625 C 16.8125 -21.40625 16.789062 -21.382812 16.75 -21.34375 C 16.71875 -21.300781 16.703125 -21.28125 16.703125 -21.28125 L 16.21875 -2.46875 L 16.21875 -2.109375 C 16.21875 -1.566406 16.453125 -1.078125 16.921875 -0.640625 C 17.398438 -0.210938 17.953125 0 18.578125 0 L 34.5625 -0.359375 C 36.050781 -0.515625 36.796875 -1.296875 36.796875 -2.703125 L 36.921875 -3.53125 L 36.796875 -3.53125 C 36.566406 -3.53125 36.332031 -3.664062 36.09375 -3.9375 C 35.863281 -4.207031 35.75 -4.421875 35.75 -4.578125 L 36.09375 -5.296875 C 36.332031 -5.523438 36.453125 -5.757812 36.453125 -6 C 36.453125 -6.070312 36.332031 -6.226562 36.09375 -6.46875 C 35.863281 -6.695312 35.75 -6.890625 35.75 -7.046875 C 35.75 -7.210938 35.863281 -7.453125 36.09375 -7.765625 C 36.09375 -8.148438 36.054688 -8.460938 35.984375 -8.703125 C 35.898438 -8.859375 35.859375 -9.132812 35.859375 -9.53125 C 35.859375 -9.53125 35.9375 -9.609375 36.09375 -9.765625 C 36.175781 -9.765625 36.234375 -9.78125 36.265625 -9.8125 C 36.304688 -9.851562 36.367188 -9.914062 36.453125 -10 C 36.140625 -10.15625 35.984375 -10.3125 35.984375 -10.46875 C 35.828125 -10.625 35.75 -10.816406 35.75 -11.046875 C 36.21875 -11.203125 36.453125 -11.398438 36.453125 -11.640625 C 36.453125 -11.796875 36.253906 -12.03125 35.859375 -12.34375 C 35.859375 -12.5 36.09375 -12.617188 36.5625 -12.703125 C 37.03125 -12.859375 37.148438 -13.050781 36.921875 -13.28125 L 36.5625 -13.515625 C 36.332031 -13.515625 36.140625 -13.554688 35.984375 -13.640625 C 35.984375 -13.796875 36.0625 -14.03125 36.21875 -14.34375 L 36.453125 -14.8125 L 36.453125 -15.046875 L 36.09375 -15.171875 C 35.9375 -15.171875 35.816406 -15.148438 35.734375 -15.109375 C 35.660156 -15.066406 35.585938 -15.046875 35.515625 -15.046875 C 35.347656 -15.046875 35.265625 -15.125 35.265625 -15.28125 L 35.265625 -15.515625 L 35.390625 -15.515625 C 35.390625 -15.515625 35.410156 -15.535156 35.453125 -15.578125 C 35.492188 -15.617188 35.515625 -15.640625 35.515625 -15.640625 C 35.671875 -15.710938 35.90625 -15.75 36.21875 -15.75 C 36.53125 -15.75 36.722656 -15.90625 36.796875 -16.21875 L 37.15625 -15.75 L 37.265625 -16.453125 L 36.5625 -16.453125 C 36.175781 -16.453125 36.0625 -16.769531 36.21875 -17.40625 C 36.375 -17.632812 36.375 -17.867188 36.21875 -18.109375 L 35.984375 -18.453125 L 35.859375 -18.9375 C 35.859375 -19.007812 35.976562 -19.164062 36.21875 -19.40625 C 36.445312 -19.632812 36.5625 -19.828125 36.5625 -19.984375 L 36.328125 -21.046875 L 35.984375 -22.21875 L 36.09375 -22.578125 L 36.21875 -22.578125 L 36.453125 -22.8125 L 36.453125 -23.15625 C 36.453125 -23.476562 36.332031 -23.796875 36.09375 -24.109375 L 36.6875 -24.34375 C 36.84375 -24.34375 37 -24.421875 37.15625 -24.578125 L 37.5 -24.578125 L 37.625 -27.390625 L 37.5 -27.390625 C 37.425781 -27.390625 37.15625 -27.507812 36.6875 -27.75 C 36.914062 -28.144531 37.226562 -28.34375 37.625 -28.34375 L 38.5625 -62.90625 Z M 8.46875 -67.71875 L 8.46875 -68.078125 L 9.171875 -68.078125 L 9.171875 -67.71875 Z M 18.8125 -67.25 L 18.8125 -67.71875 L 19.40625 -67.71875 L 19.40625 -67.25 Z M 5.640625 -66.078125 C 5.328125 -66.234375 4.9375 -66.3125 4.46875 -66.3125 C 4.226562 -66.625 4.304688 -67.015625 4.703125 -67.484375 L 5.40625 -67.484375 L 6.109375 -67.015625 L 6.109375 -66.546875 Z M 16.453125 -67.140625 C 16.453125 -66.898438 16.414062 -66.78125 16.34375 -66.78125 L 16.109375 -66.78125 L 15.984375 -66.671875 L 15.515625 -66.78125 L 15.515625 -67.484375 L 16.453125 -67.484375 Z M -0.59375 -66.671875 L -0.59375 -67.015625 L 0.46875 -67.015625 L 0.46875 -66.671875 Z M 8.9375 -66.78125 L 8.46875 -66.671875 C 8.3125 -66.515625 8.234375 -66.4375 8.234375 -66.4375 C 7.835938 -66.28125 7.757812 -66.082031 8 -65.84375 C 7.6875 -65.601562 7.453125 -65.5625 7.296875 -65.71875 C 7.210938 -65.71875 7.09375 -65.757812 6.9375 -65.84375 C 6.78125 -65.925781 6.660156 -66.003906 6.578125 -66.078125 C 6.734375 -66.160156 6.972656 -66.359375 7.296875 -66.671875 C 7.523438 -66.898438 7.835938 -67.015625 8.234375 -67.015625 L 8.46875 -67.015625 Z M 4.828125 -65.609375 L 4.828125 -66.078125 L 6.34375 -65.84375 Z M 9.171875 -63.96875 C 8.617188 -64.039062 8.320312 -64.175781 8.28125 -64.375 C 8.25 -64.570312 8.390625 -64.828125 8.703125 -65.140625 L 8.9375 -65.140625 L 9.171875 -65.015625 L 9.640625 -65.015625 L 9.640625 -64.203125 Z M 18.34375 -64.78125 C 18.34375 -64.46875 18.222656 -64.195312 17.984375 -63.96875 C 17.671875 -64.195312 17.515625 -64.429688 17.515625 -64.671875 L 17.875 -64.671875 Z M 5.296875 -63.609375 L 5.296875 -64.078125 L 6 -64.078125 L 6 -63.609375 Z M 13.40625 -63.484375 C 13.320312 -63.171875 12.929688 -63.054688 12.234375 -63.140625 C 12.078125 -63.140625 11.957031 -63.175781 11.875 -63.25 L 11.515625 -63.25 C 11.359375 -63.332031 11.125 -63.375 10.8125 -63.375 C 11.050781 -63.84375 11.363281 -64.078125 11.75 -64.078125 C 11.914062 -64.078125 12.46875 -64 13.40625 -63.84375 Z M 19.875 -29.515625 L 19.640625 -29.625 L 19.984375 -29.859375 L 20.21875 -30.09375 L 20.453125 -29.625 L 19.875 -29.390625 Z M 33.15625 -28.6875 C 33 -28.53125 32.878906 -28.453125 32.796875 -28.453125 C 32.796875 -28.453125 32.773438 -28.429688 32.734375 -28.390625 C 32.703125 -28.359375 32.6875 -28.34375 32.6875 -28.34375 L 32.453125 -28.453125 L 32.453125 -28.6875 Z M 20.453125 -24.6875 C 20.453125 -24.457031 20.375 -24.144531 20.21875 -23.75 C 20.0625 -23.351562 19.90625 -23.117188 19.75 -23.046875 C 19.90625 -22.890625 19.984375 -22.691406 19.984375 -22.453125 C 19.910156 -22.378906 19.890625 -22.242188 19.921875 -22.046875 C 19.960938 -21.847656 19.984375 -21.710938 19.984375 -21.640625 C 19.984375 -21.484375 20.0625 -21.085938 20.21875 -20.453125 L 20.578125 -19.75 C 20.578125 -19.4375 20.378906 -19.164062 19.984375 -18.9375 L 20.21875 -18.8125 C 20.21875 -18.5 20.238281 -18.144531 20.28125 -17.75 C 20.320312 -17.363281 20.300781 -17.015625 20.21875 -16.703125 C 20.0625 -16.222656 20.179688 -15.90625 20.578125 -15.75 C 20.335938 -15.4375 20.101562 -15.28125 19.875 -15.28125 C 20.101562 -15.050781 20.21875 -14.9375 20.21875 -14.9375 C 20.375 -14.9375 20.453125 -14.859375 20.453125 -14.703125 L 20.34375 -14.578125 C 20.257812 -14.503906 20.140625 -14.46875 19.984375 -14.46875 L 19.171875 -14.578125 L 18.6875 -14.8125 C 18.53125 -14.8125 18.414062 -14.851562 18.34375 -14.9375 L 18.453125 -16.21875 L 18.6875 -18.8125 C 18.851562 -19.4375 18.851562 -19.789062 18.6875 -19.875 L 18.6875 -20.6875 C 19.007812 -21.082031 19.171875 -21.4375 19.171875 -21.75 C 19.171875 -21.832031 19.050781 -21.988281 18.8125 -22.21875 C 18.65625 -22.300781 18.535156 -22.421875 18.453125 -22.578125 C 18.453125 -22.648438 18.53125 -22.765625 18.6875 -22.921875 L 19.046875 -23.28125 C 18.890625 -23.4375 18.8125 -23.59375 18.8125 -23.75 C 18.8125 -23.90625 18.851562 -23.984375 18.9375 -23.984375 L 19.046875 -24.34375 C 18.972656 -24.5 18.9375 -24.734375 18.9375 -25.046875 C 18.9375 -25.585938 19.25 -26.332031 19.875 -27.28125 C 19.875 -26.8125 19.988281 -26.613281 20.21875 -26.6875 C 20.53125 -26.613281 20.6875 -26.457031 20.6875 -26.21875 L 20.578125 -25.75 Z M 37.390625 -22.453125 C 37.390625 -22.378906 37.347656 -22.34375 37.265625 -22.34375 C 37.265625 -22.34375 37.265625 -22.300781 37.265625 -22.21875 C 37.265625 -22.144531 37.265625 -22.109375 37.265625 -22.109375 L 37.390625 -22.109375 Z M 35.03125 -17.875 C 35.03125 -17.71875 34.953125 -17.597656 34.796875 -17.515625 L 34.328125 -17.640625 L 34.328125 -17.984375 C 34.410156 -17.910156 34.53125 -17.875 34.6875 -17.875 Z M 20.109375 -9.171875 C 19.710938 -9.015625 19.59375 -8.816406 19.75 -8.578125 C 19.75 -8.265625 19.632812 -7.914062 19.40625 -7.53125 L 18.8125 -7.40625 C 18.414062 -7.957031 18.21875 -8.3125 18.21875 -8.46875 C 18.0625 -8.539062 17.984375 -8.773438 17.984375 -9.171875 C 17.984375 -9.242188 18.0625 -9.28125 18.21875 -9.28125 C 18.375 -9.28125 18.335938 -9.476562 18.109375 -9.875 C 18.179688 -9.957031 18.21875 -10.078125 18.21875 -10.234375 L 18.34375 -10.46875 L 18.453125 -11.875 C 18.453125 -12.113281 18.414062 -12.269531 18.34375 -12.34375 C 18.257812 -12.5 18.21875 -12.695312 18.21875 -12.9375 C 18.144531 -13.007812 18.222656 -13.222656 18.453125 -13.578125 C 18.691406 -13.929688 18.929688 -14.1875 19.171875 -14.34375 C 19.242188 -14.34375 19.300781 -14.320312 19.34375 -14.28125 C 19.382812 -14.25 19.441406 -14.191406 19.515625 -14.109375 L 19.875 -13.984375 Z M 20.109375 -9.171875 "/></g></g></g><g clip-path="url(#fa8635515e)"><path fill="#231f20" d="M 113.496094 257.164062 C 116.210938 257.164062 117.550781 257.328125 118.207031 256.945312 C 118.726562 256.640625 118.816406 255.773438 118.816406 255.773438 C 114.894531 255.683594 111.394531 253.019531 111.394531 253.019531 C 111.394531 253.019531 108.449219 257.164062 113.496094 257.164062 Z M 125.664062 247.035156 C 126.097656 245.871094 123.421875 243.816406 119.695312 242.441406 C 115.964844 241.066406 111.921875 238.90625 111.921875 238.90625 C 111.921875 238.90625 114.40625 245.277344 118.132812 246.652344 C 121.863281 248.027344 125.234375 248.199219 125.664062 247.035156 Z M 144.644531 231.828125 L 169.367188 231.828125 C 170.941406 231.828125 172.078125 230.324219 171.648438 228.816406 L 167.742188 215.113281 C 165.792969 210.957031 161.136719 211.003906 161.136719 211.003906 L 149.167969 210.652344 L 149.167969 210.847656 C 149.167969 211.457031 148.671875 211.953125 148.058594 211.953125 L 141.230469 211.953125 C 140.621094 211.953125 140.125 211.457031 140.125 210.847656 L 140.125 210.652344 L 128.15625 211.003906 C 128.15625 211.003906 123.5 210.957031 121.550781 215.113281 L 117.644531 228.816406 C 117.210938 230.324219 118.347656 231.828125 119.921875 231.828125 Z M 133.339844 257.03125 L 155.949219 257.03125 L 157.679688 255.109375 L 131.613281 255.109375 Z M 163.625 247.035156 C 164.058594 248.199219 167.429688 248.027344 171.160156 246.652344 C 174.886719 245.277344 177.371094 238.90625 177.371094 238.90625 C 177.371094 238.90625 173.324219 241.066406 169.597656 242.441406 C 165.867188 243.816406 163.195312 245.871094 163.625 247.035156 Z M 171.085938 256.945312 C 171.742188 257.328125 173.082031 257.164062 175.796875 257.164062 C 180.84375 257.164062 177.898438 253.019531 177.898438 253.019531 C 177.898438 253.019531 174.398438 255.683594 170.476562 255.773438 C 170.476562 255.773438 170.566406 256.640625 171.085938 256.945312 Z M 182.328125 223.957031 C 182.449219 223.957031 182.550781 223.859375 182.550781 223.738281 C 182.550781 223.613281 182.449219 223.515625 182.328125 223.515625 L 175.5 223.515625 C 175.378906 223.515625 175.277344 223.613281 175.277344 223.738281 C 175.277344 223.859375 175.378906 223.957031 175.5 223.957031 Z M 149.027344 207.339844 L 147.195312 204.523438 L 145.554688 204.523438 L 143.726562 207.335938 L 142.050781 205.871094 L 143.578125 204.523438 L 141.917969 204.523438 L 141.054688 205.386719 L 140.21875 204.523438 L 138.574219 204.523438 L 140.089844 205.886719 L 138.433594 207.339844 L 140.125 207.339844 L 141.085938 206.433594 L 142.046875 207.339844 L 145.300781 207.339844 L 145.542969 206.875 L 147.253906 206.875 L 147.492188 207.339844 Z M 150.296875 207.339844 L 151.800781 207.339844 L 151.800781 205.21875 L 153.335938 205.21875 L 153.335938 204.523438 L 148.757812 204.523438 L 148.757812 205.21875 L 150.296875 205.21875 Z M 137.890625 204.523438 L 136.382812 204.523438 L 136.382812 207.339844 L 137.890625 207.339844 Z M 113.792969 223.515625 L 106.964844 223.515625 C 106.84375 223.515625 106.742188 223.613281 106.742188 223.738281 C 106.742188 223.859375 106.84375 223.957031 106.964844 223.957031 L 113.792969 223.957031 C 113.914062 223.957031 114.011719 223.859375 114.011719 223.738281 C 114.011719 223.613281 113.914062 223.515625 113.792969 223.515625 Z M 112.738281 229.910156 C 112.898438 229.773438 112.992188 229.574219 112.992188 229.367188 L 112.992188 228.46875 C 112.992188 228.078125 112.675781 227.761719 112.285156 227.761719 L 106.84375 227.761719 C 106.320312 227.761719 105.902344 227.339844 105.902344 226.820312 L 105.902344 223.304688 C 105.902344 222.785156 106.320312 222.367188 106.84375 222.367188 L 113.515625 222.367188 C 114.539062 222.367188 115.453125 222.992188 115.820312 223.941406 L 116.273438 225.109375 L 119.375 214.847656 C 119.375 214.847656 120.53125 209.808594 125.714844 209.5 C 129.082031 209.296875 136.054688 209.117188 140.535156 209.011719 L 132.535156 209.011719 C 131.910156 209.011719 131.53125 208.171875 131.871094 207.535156 L 133.800781 203.933594 C 134.039062 203.488281 134.449219 203.21875 134.886719 203.21875 L 154.402344 203.21875 C 154.84375 203.21875 155.253906 203.488281 155.492188 203.933594 L 157.417969 207.535156 C 157.761719 208.171875 157.382812 209.011719 156.757812 209.011719 L 148.757812 209.011719 C 153.234375 209.117188 160.207031 209.296875 163.574219 209.5 C 168.761719 209.808594 169.914062 214.847656 169.914062 214.847656 L 173.019531 225.109375 L 173.46875 223.941406 C 173.839844 222.992188 174.753906 222.367188 175.773438 222.367188 L 182.449219 222.367188 C 182.96875 222.367188 183.390625 222.785156 183.390625 223.304688 L 183.390625 226.820312 C 183.390625 227.339844 182.96875 227.761719 182.449219 227.761719 L 177.007812 227.761719 C 176.617188 227.761719 176.300781 228.078125 176.300781 228.46875 L 176.300781 229.367188 C 176.300781 229.574219 176.394531 229.773438 176.554688 229.910156 C 179.195312 232.132812 181.695312 237.945312 182.371094 239.605469 C 182.488281 239.894531 182.550781 240.203125 182.550781 240.515625 L 182.550781 265.523438 C 182.550781 266.476562 181.777344 267.246094 180.820312 267.246094 L 168.984375 267.246094 C 168.027344 267.246094 167.253906 266.476562 167.253906 265.523438 L 167.253906 261.699219 C 167.253906 261.097656 166.769531 260.613281 166.167969 260.613281 L 162.867188 260.613281 C 162.207031 260.613281 161.667969 260.082031 161.667969 259.421875 L 127.621094 259.421875 C 127.621094 260.082031 127.085938 260.613281 126.425781 260.613281 L 123.121094 260.613281 C 122.523438 260.613281 122.035156 261.097656 122.035156 261.699219 L 122.035156 265.523438 C 122.035156 266.476562 121.261719 267.246094 120.308594 267.246094 L 108.472656 267.246094 C 107.515625 267.246094 106.742188 266.476562 106.742188 265.523438 L 106.742188 240.515625 C 106.742188 240.203125 106.804688 239.894531 106.921875 239.605469 C 107.597656 237.945312 110.09375 232.132812 112.738281 229.910156 " fill-opacity="1" fill-rule="nonzero"/></g><path fill="#231f20" d="M 100.390625 198.488281 L 99.488281 198.488281 L 99.941406 197.636719 Z M 100.390625 198.488281 " fill-opacity="1" fill-rule="nonzero"/><path fill="#231f20" d="M 59.988281 195.800781 L 59.296875 195.800781 L 59.644531 195.144531 Z M 59.988281 195.800781 " fill-opacity="1" fill-rule="nonzero"/><g clip-path="url(#e2a84c336b)"><path fill="#231f20" d="M 34.085938 207.269531 L 38.511719 207.269531 C 38.589844 207.269531 38.65625 207.207031 38.65625 207.128906 C 38.65625 207.046875 38.589844 206.984375 38.511719 206.984375 L 34.085938 206.984375 C 34.007812 206.984375 33.941406 207.046875 33.941406 207.128906 C 33.941406 207.207031 34.007812 207.269531 34.085938 207.269531 Z M 37.296875 216.960938 C 37.296875 216.960938 38.910156 221.085938 41.324219 221.980469 C 43.742188 222.871094 45.925781 222.980469 46.207031 222.226562 C 46.484375 221.472656 44.753906 220.140625 42.335938 219.25 C 39.921875 218.359375 37.296875 216.960938 37.296875 216.960938 Z M 38.320312 228.792969 C 40.078125 228.792969 40.949219 228.898438 41.375 228.648438 C 41.710938 228.453125 41.769531 227.890625 41.769531 227.890625 C 39.226562 227.832031 36.957031 226.105469 36.957031 226.105469 C 36.957031 226.105469 35.046875 228.792969 38.320312 228.792969 Z M 56.828125 196.496094 L 58.933594 196.496094 L 59.09375 196.195312 L 60.199219 196.195312 L 60.355469 196.496094 L 61.351562 196.496094 L 60.164062 194.671875 L 59.097656 194.671875 L 57.914062 196.496094 L 56.828125 195.546875 L 57.816406 194.671875 L 56.742188 194.671875 L 56.183594 195.234375 L 55.640625 194.671875 L 54.574219 194.671875 L 55.558594 195.554688 L 54.480469 196.496094 L 55.578125 196.496094 L 56.203125 195.910156 Z M 62.171875 196.496094 L 63.148438 196.496094 L 63.148438 195.121094 L 64.144531 195.121094 L 64.144531 194.671875 L 61.175781 194.671875 L 61.175781 195.121094 L 62.171875 195.121094 Z M 54.128906 194.671875 L 53.152344 194.671875 L 53.152344 196.496094 L 54.128906 196.496094 Z M 34.007812 206.238281 L 38.335938 206.238281 C 38.996094 206.238281 39.589844 206.644531 39.828125 207.257812 L 40.121094 208.015625 L 42.132812 201.367188 C 42.132812 201.367188 42.878906 198.097656 46.242188 197.898438 C 48.421875 197.765625 52.941406 197.648438 55.84375 197.582031 L 50.660156 197.582031 C 50.253906 197.582031 50.007812 197.039062 50.230469 196.625 L 51.480469 194.289062 C 51.636719 194 51.902344 193.828125 52.183594 193.828125 L 64.835938 193.828125 C 65.117188 193.828125 65.382812 194 65.539062 194.289062 L 66.789062 196.625 C 67.011719 197.039062 66.765625 197.582031 66.359375 197.582031 L 61.175781 197.582031 C 64.078125 197.648438 68.597656 197.765625 70.777344 197.898438 C 74.140625 198.097656 74.886719 201.367188 74.886719 201.367188 L 75.972656 204.957031 C 75.929688 205.089844 75.894531 205.222656 75.863281 205.34375 L 75.195312 207.554688 L 73.480469 201.539062 C 72.214844 198.84375 69.199219 198.871094 69.199219 198.871094 L 61.441406 198.644531 L 61.441406 198.769531 C 61.441406 199.167969 61.117188 199.488281 60.722656 199.488281 L 56.296875 199.488281 C 55.898438 199.488281 55.578125 199.167969 55.578125 198.769531 L 55.578125 198.644531 L 47.820312 198.871094 C 47.820312 198.871094 44.804688 198.84375 43.539062 201.539062 L 41.007812 210.417969 C 40.726562 211.398438 41.464844 212.371094 42.484375 212.371094 L 64.53125 212.371094 C 64.5 212.515625 64.484375 212.664062 64.484375 212.820312 L 64.484375 215.773438 C 64.484375 216.984375 65.472656 217.964844 66.683594 217.964844 L 70.039062 217.964844 C 67.941406 220.214844 66.160156 224.242188 65.449219 225.996094 C 65.277344 226.410156 65.191406 226.84375 65.191406 227.289062 L 65.191406 227.460938 L 50.0625 227.460938 L 51.183594 228.707031 L 65.191406 228.707031 L 65.191406 230.253906 L 47.476562 230.253906 C 47.476562 230.683594 47.128906 231.027344 46.699219 231.027344 L 44.558594 231.027344 C 44.171875 231.027344 43.855469 231.34375 43.855469 231.730469 L 43.855469 234.210938 C 43.855469 234.828125 43.355469 235.328125 42.734375 235.328125 L 35.0625 235.328125 C 34.445312 235.328125 33.941406 234.828125 33.941406 234.210938 L 33.941406 218 C 33.941406 217.800781 33.980469 217.597656 34.058594 217.410156 C 34.496094 216.335938 36.117188 212.566406 37.828125 211.128906 C 37.933594 211.039062 37.992188 210.910156 37.992188 210.773438 L 37.992188 210.191406 C 37.992188 209.941406 37.789062 209.734375 37.535156 209.734375 L 34.007812 209.734375 C 33.667969 209.734375 33.398438 209.460938 33.398438 209.125 L 33.398438 206.847656 C 33.398438 206.511719 33.667969 206.238281 34.007812 206.238281 " fill-opacity="1" fill-rule="nonzero"/></g><path fill="#231f20" d="M 72.277344 241.289062 C 74.558594 241.289062 75.6875 241.429688 76.238281 241.105469 C 76.675781 240.851562 76.75 240.121094 76.75 240.121094 C 73.453125 240.042969 70.511719 237.804688 70.511719 237.804688 C 70.511719 237.804688 68.03125 241.289062 72.277344 241.289062 Z M 82.511719 232.773438 C 82.871094 231.796875 80.625 230.066406 77.488281 228.910156 C 74.355469 227.753906 70.953125 225.9375 70.953125 225.9375 C 70.953125 225.9375 73.042969 231.296875 76.175781 232.449219 C 79.3125 233.605469 82.148438 233.75 82.511719 232.773438 Z M 72.527344 212.996094 L 66.785156 212.996094 C 66.683594 212.996094 66.597656 213.078125 66.597656 213.179688 C 66.597656 213.28125 66.683594 213.367188 66.785156 213.367188 L 72.527344 213.367188 C 72.628906 213.367188 72.710938 213.28125 72.710938 213.179688 C 72.710938 213.078125 72.628906 212.996094 72.527344 212.996094 Z M 96.285156 199.390625 L 99.019531 199.390625 L 99.226562 199 L 100.664062 199 L 100.863281 199.390625 L 102.15625 199.390625 L 100.617188 197.023438 L 99.238281 197.023438 L 97.699219 199.390625 L 96.289062 198.15625 L 97.570312 197.023438 L 96.175781 197.023438 L 95.453125 197.753906 L 94.746094 197.023438 L 93.367188 197.023438 L 94.640625 198.171875 L 93.246094 199.390625 L 94.667969 199.390625 L 95.476562 198.628906 Z M 103.222656 199.390625 L 104.488281 199.390625 L 104.488281 197.609375 L 105.78125 197.609375 L 105.78125 197.023438 L 101.929688 197.023438 L 101.929688 197.609375 L 103.222656 197.609375 Z M 92.789062 197.023438 L 91.519531 197.023438 L 91.519531 199.390625 L 92.789062 199.390625 Z M 71.640625 218.371094 C 71.777344 218.257812 71.855469 218.09375 71.855469 217.914062 L 71.855469 217.160156 C 71.855469 216.832031 71.585938 216.5625 71.257812 216.5625 L 66.683594 216.5625 C 66.246094 216.5625 65.890625 216.210938 65.890625 215.773438 L 65.890625 212.820312 C 65.890625 212.382812 66.246094 212.027344 66.683594 212.027344 L 72.296875 212.027344 C 73.152344 212.027344 73.921875 212.554688 74.234375 213.351562 L 74.613281 214.332031 L 77.222656 205.707031 C 77.222656 205.707031 78.191406 201.46875 82.554688 201.207031 C 85.386719 201.039062 91.25 200.886719 95.011719 200.800781 L 88.289062 200.800781 C 87.761719 200.800781 87.441406 200.089844 87.730469 199.554688 L 89.351562 196.53125 C 89.554688 196.15625 89.898438 195.929688 90.265625 195.929688 L 106.675781 195.929688 C 107.046875 195.929688 107.390625 196.15625 107.589844 196.53125 L 109.214844 199.554688 C 109.5 200.089844 109.183594 200.800781 108.65625 200.800781 L 101.929688 200.800781 C 105.695312 200.886719 111.558594 201.039062 114.390625 201.207031 C 118.75 201.46875 119.71875 205.707031 119.71875 205.707031 L 120.980469 209.871094 C 120.382812 210.355469 119.882812 210.898438 119.46875 211.460938 L 117.894531 205.929688 C 116.253906 202.433594 112.339844 202.472656 112.339844 202.472656 L 102.273438 202.179688 L 102.273438 202.34375 C 102.273438 202.855469 101.855469 203.273438 101.34375 203.273438 L 95.601562 203.273438 C 95.085938 203.273438 94.667969 202.855469 94.667969 202.34375 L 94.667969 202.179688 L 84.601562 202.472656 C 84.601562 202.472656 80.691406 202.433594 79.050781 205.929688 L 75.765625 217.453125 C 75.402344 218.722656 76.359375 219.984375 77.679688 219.984375 L 116.355469 219.984375 L 115.828125 221.730469 C 115.171875 221.246094 114.363281 220.964844 113.515625 220.964844 L 106.84375 220.964844 C 105.546875 220.964844 104.496094 222.015625 104.496094 223.304688 L 104.496094 226.820312 C 104.496094 228.113281 105.546875 229.160156 106.84375 229.160156 L 111.46875 229.160156 C 108.820312 231.671875 106.511719 236.882812 105.617188 239.078125 C 105.554688 239.234375 105.5 239.398438 105.457031 239.5625 L 87.511719 239.5625 L 88.964844 241.179688 L 105.335938 241.179688 L 105.335938 243.1875 L 84.15625 243.1875 C 84.15625 243.742188 83.707031 244.191406 83.148438 244.191406 L 80.375 244.191406 C 79.867188 244.191406 79.460938 244.597656 79.460938 245.101562 L 79.460938 248.320312 C 79.460938 249.121094 78.808594 249.769531 78.007812 249.769531 L 68.050781 249.769531 C 67.25 249.769531 66.597656 249.121094 66.597656 248.320312 L 66.597656 227.289062 C 66.597656 227.027344 66.648438 226.769531 66.75 226.523438 C 67.316406 225.128906 69.417969 220.242188 71.640625 218.371094 " fill-opacity="1" fill-rule="nonzero"/><path fill="#231f20" d="M 146.394531 205.253906 L 146.925781 206.265625 L 145.855469 206.265625 Z M 146.394531 205.253906 " fill-opacity="1" fill-rule="nonzero"/><g fill="#000000" fill-opacity="1"><g transform="translate(155.264644, 195.49313)"><g><path d="M 21.265625 -19.25 C 17.140625 -20.769531 12.921875 -22.832031 8.609375 -25.4375 C 8.160156 -25.707031 7.710938 -25.84375 7.265625 -25.84375 C 6.097656 -25.84375 5.289062 -25.300781 4.84375 -24.21875 L -1.078125 -12.375 C -1.347656 -11.84375 -1.484375 -11.351562 -1.484375 -10.90625 C -1.484375 -10.007812 -0.988281 -9.289062 0 -8.75 C 9.0625 -3.8125 16.597656 -1.03125 22.609375 -0.40625 C 25.117188 -0.226562 27.003906 -0.140625 28.265625 -0.140625 C 33.648438 -0.140625 38.539062 -0.988281 42.9375 -2.6875 C 47.0625 -4.300781 50.378906 -6.945312 52.890625 -10.625 C 55.398438 -14.3125 57.148438 -18.710938 58.140625 -23.828125 L 58.140625 -23.953125 C 58.222656 -24.578125 58.265625 -25.566406 58.265625 -26.921875 C 58.265625 -36.878906 52.703125 -45.222656 41.578125 -51.953125 L 37.40625 -54.5 C 35.34375 -55.757812 33.550781 -57.148438 32.03125 -58.671875 C 29.519531 -60.921875 28.265625 -63.523438 28.265625 -66.484375 C 28.265625 -68.273438 28.710938 -70.023438 29.609375 -71.734375 C 30.679688 -74.515625 32.519531 -75.679688 35.125 -75.234375 L 35.265625 -75.234375 C 36.242188 -75.140625 36.867188 -74.285156 37.140625 -72.671875 C 37.410156 -69.347656 37.546875 -66.164062 37.546875 -63.125 C 37.546875 -61.320312 38.441406 -60.421875 40.234375 -60.421875 L 55.84375 -60.421875 C 57.644531 -60.421875 58.546875 -61.273438 58.546875 -62.984375 C 58.722656 -65.859375 58.8125 -68.328125 58.8125 -70.390625 C 58.8125 -72.179688 58.722656 -73.796875 58.546875 -75.234375 C 58.179688 -79.628906 57.015625 -83.082031 55.046875 -85.59375 C 51.097656 -90.4375 44.90625 -92.859375 36.46875 -92.859375 C 34.132812 -92.859375 31.890625 -92.722656 29.734375 -92.453125 C 19.867188 -91.285156 12.691406 -86.753906 8.203125 -78.859375 C 4.972656 -73.472656 3.359375 -67.910156 3.359375 -62.171875 C 3.359375 -59.835938 3.628906 -57.460938 4.171875 -55.046875 C 5.066406 -51.273438 6.726562 -48.269531 9.15625 -46.03125 C 9.15625 -46.03125 9.175781 -46.003906 9.21875 -45.953125 C 9.257812 -45.910156 9.28125 -45.890625 9.28125 -45.890625 C 13.675781 -42.210938 16.320312 -40.148438 17.21875 -39.703125 L 17.5 -39.5625 L 20.1875 -37.953125 C 24.757812 -35.171875 27.71875 -33.242188 29.0625 -32.171875 C 31.84375 -30.097656 33.234375 -27.492188 33.234375 -24.359375 C 33.234375 -22.378906 32.628906 -20.851562 31.421875 -19.78125 C 30.210938 -18.707031 28.617188 -18.171875 26.640625 -18.171875 C 25.023438 -18.171875 23.234375 -18.53125 21.265625 -19.25 Z M 43.0625 -77.109375 L 43.609375 -77.109375 L 43.609375 -76.84375 L 43.0625 -76.84375 Z M 46.5625 -72.53125 C 46.46875 -72.445312 46.351562 -72.40625 46.21875 -72.40625 C 46.09375 -72.40625 46.070312 -72.492188 46.15625 -72.671875 C 46.15625 -72.671875 46.175781 -72.691406 46.21875 -72.734375 C 46.269531 -72.785156 46.296875 -72.8125 46.296875 -72.8125 L 46.421875 -73.078125 C 46.421875 -73.078125 46.441406 -73.050781 46.484375 -73 C 46.535156 -72.957031 46.5625 -72.9375 46.5625 -72.9375 L 46.828125 -72.8125 Z M 43.609375 -67.15625 C 43.609375 -66.976562 43.5625 -66.890625 43.46875 -66.890625 L 42.796875 -66.890625 C 42.796875 -67.242188 43.019531 -67.421875 43.46875 -67.421875 Z M 40.375 -43.734375 C 40.550781 -43.554688 40.640625 -43.332031 40.640625 -43.0625 L 39.5625 -43.0625 C 39.5625 -43.0625 39.515625 -43.21875 39.421875 -43.53125 C 39.335938 -43.84375 39.382812 -44.226562 39.5625 -44.6875 L 40.375 -44.6875 C 40.46875 -44.59375 40.515625 -44.363281 40.515625 -44 Z M 34.59375 -43.734375 L 34.59375 -44.28125 L 35.796875 -44.28125 L 35.796875 -43.734375 Z M 41.984375 -42.9375 L 41.71875 -42.796875 L 41.71875 -42.65625 L 40.640625 -42.125 C 40.285156 -42.664062 40.109375 -42.9375 40.109375 -42.9375 C 40.285156 -43.019531 40.550781 -43.0625 40.90625 -43.0625 L 41.453125 -43.0625 Z M 38.21875 -38.359375 C 38.394531 -38.171875 38.484375 -37.988281 38.484375 -37.8125 L 38.21875 -37.6875 L 37.953125 -37.8125 L 37.6875 -37.8125 L 37.6875 -38.765625 L 37.953125 -38.484375 Z M 45.484375 -36.34375 L 45.21875 -36.203125 L 44.40625 -36.203125 C 44.40625 -36.554688 44.675781 -36.867188 45.21875 -37.140625 L 45.75 -36.609375 L 45.75 -36.34375 Z M 43.46875 -34.1875 L 43.46875 -34.59375 L 44.6875 -34.453125 L 44.6875 -33.90625 Z M 50.875 -31.625 C 50.957031 -31.625 51 -31.535156 51 -31.359375 C 51 -30.816406 50.734375 -30.546875 50.203125 -30.546875 C 49.660156 -30.546875 49.300781 -30.769531 49.125 -31.21875 L 49.390625 -31.890625 L 50.59375 -31.890625 C 50.59375 -31.804688 50.640625 -31.765625 50.734375 -31.765625 Z M 44.8125 -31.09375 L 44.28125 -31.359375 L 44.6875 -31.765625 L 45.21875 -31.625 Z M 46.828125 -27.859375 C 46.828125 -27.679688 46.960938 -27.59375 47.234375 -27.59375 C 47.234375 -27.40625 47.191406 -27.3125 47.109375 -27.3125 L 47.109375 -27.046875 C 47.015625 -27.046875 46.96875 -27.003906 46.96875 -26.921875 L 46.03125 -26.921875 L 45.890625 -27.046875 L 45.75 -27.046875 L 45.484375 -27.1875 L 45.75 -28.125 L 46.296875 -28.125 Z M 52.34375 -27.453125 L 52.75 -27.3125 L 52.34375 -27.046875 L 52.078125 -26.921875 C 51.804688 -26.648438 51.582031 -26.515625 51.40625 -26.515625 L 51.40625 -27.046875 C 51.320312 -27.222656 51.367188 -27.40625 51.546875 -27.59375 L 52.078125 -27.59375 Z M 48.171875 -25.03125 C 47.816406 -25.03125 47.523438 -25.117188 47.296875 -25.296875 C 47.078125 -25.472656 47.015625 -25.695312 47.109375 -25.96875 C 47.191406 -25.96875 47.320312 -25.988281 47.5 -26.03125 C 47.6875 -26.082031 47.957031 -26.109375 48.3125 -26.109375 L 48.578125 -26.25 C 48.671875 -26.332031 48.851562 -26.375 49.125 -26.375 L 49.25 -25.703125 L 48.71875 -25.296875 Z M 47.5 -22.875 C 48.21875 -22.15625 48.578125 -21.753906 48.578125 -21.671875 C 48.578125 -21.484375 48.535156 -21.347656 48.453125 -21.265625 L 48.453125 -21 L 48.171875 -21 L 47.90625 -20.859375 L 47.5 -20.859375 C 47.238281 -20.859375 47.015625 -20.945312 46.828125 -21.125 L 46.421875 -21.125 C 46.421875 -21.125 46.265625 -21.144531 45.953125 -21.1875 C 45.640625 -21.238281 45.21875 -21.304688 44.6875 -21.390625 C 44.5 -21.578125 44.40625 -21.710938 44.40625 -21.796875 L 44.28125 -21.9375 L 44.28125 -22.46875 L 44.6875 -22.46875 C 45.132812 -22.46875 45.488281 -22.425781 45.75 -22.34375 C 45.9375 -22.25 46.160156 -22.203125 46.421875 -22.203125 L 46.5625 -22.203125 C 46.738281 -22.203125 46.875 -22.25 46.96875 -22.34375 L 47.234375 -22.46875 C 47.234375 -22.5625 47.320312 -22.695312 47.5 -22.875 Z M 51.546875 -21.796875 L 51.546875 -21.53125 L 50.46875 -21.53125 C 50.738281 -21.800781 50.875 -22.070312 50.875 -22.34375 L 51.8125 -22.34375 Z M 50.0625 -20.59375 L 50.0625 -21.390625 L 50.734375 -21.390625 L 50.734375 -20.59375 Z M 47.109375 -19.921875 C 47.109375 -19.734375 46.878906 -19.507812 46.421875 -19.25 L 45.484375 -18.703125 L 44.953125 -18.703125 C 44.410156 -18.703125 44.050781 -18.789062 43.875 -18.96875 L 43.875 -19.25 C 43.875 -19.507812 44.144531 -19.773438 44.6875 -20.046875 C 44.945312 -20.046875 45.125 -20.09375 45.21875 -20.1875 C 45.664062 -20.457031 45.84375 -20.546875 45.75 -20.453125 L 47.109375 -20.453125 Z M 51 -18.96875 C 51.269531 -18.707031 51.40625 -18.53125 51.40625 -18.4375 C 51.40625 -17.988281 51.179688 -17.765625 50.734375 -17.765625 L 50.203125 -17.359375 C 49.835938 -17.804688 49.65625 -18.164062 49.65625 -18.4375 C 49.65625 -18.976562 49.878906 -19.289062 50.328125 -19.375 Z M 47.234375 -17.90625 C 46.785156 -17.8125 46.289062 -17.8125 45.75 -17.90625 L 45.75 -18.4375 L 46.296875 -18.84375 L 47.109375 -18.84375 C 47.191406 -18.84375 47.234375 -18.707031 47.234375 -18.4375 Z M 19.78125 -17.765625 L 19.78125 -18.171875 L 20.59375 -18.171875 L 20.59375 -17.765625 Z M 44.40625 -16.015625 L 44.140625 -15.75 L 43.875 -15.75 C 43.875 -15.65625 43.785156 -15.609375 43.609375 -15.609375 L 43.609375 -16.15625 C 43.609375 -16.332031 43.695312 -16.507812 43.875 -16.6875 C 43.957031 -16.6875 44.019531 -16.660156 44.0625 -16.609375 C 44.113281 -16.566406 44.140625 -16.546875 44.140625 -16.546875 L 44.28125 -16.28125 Z M 39.828125 -14.40625 C 40.015625 -14.3125 40.109375 -14.039062 40.109375 -13.59375 C 39.742188 -13.59375 39.382812 -13.679688 39.03125 -13.859375 C 39.113281 -13.859375 39.175781 -13.878906 39.21875 -13.921875 C 39.269531 -13.972656 39.296875 -14 39.296875 -14 C 39.296875 -14.082031 39.382812 -14.125 39.5625 -14.125 L 39.5625 -14.265625 C 39.5625 -14.359375 39.648438 -14.40625 39.828125 -14.40625 Z M 47.234375 -14.125 C 47.328125 -14.039062 47.375 -13.910156 47.375 -13.734375 C 47.101562 -13.734375 46.5625 -13.863281 45.75 -14.125 L 47.234375 -14.40625 Z M 22.46875 -13.59375 L 21.9375 -13.859375 L 22.34375 -14.265625 L 22.875 -14.125 Z M 40.640625 -12.78125 C 41.003906 -12.78125 41.226562 -12.738281 41.3125 -12.65625 L 41.984375 -12.515625 C 41.984375 -12.066406 41.625 -11.84375 40.90625 -11.84375 C 40.90625 -11.9375 40.726562 -11.984375 40.375 -11.984375 Z M 37.953125 -11.84375 L 37.953125 -12.515625 L 38.484375 -12.515625 L 38.484375 -11.84375 Z M 25.703125 -9.421875 L 25.703125 -9.828125 L 26.640625 -9.828125 L 26.640625 -9.421875 Z M 40.375 -9.015625 C 40.195312 -9.109375 40.109375 -9.242188 40.109375 -9.421875 C 40.109375 -9.691406 40.195312 -9.828125 40.375 -9.828125 L 41.453125 -9.828125 Z M 40.375 -9.015625 "/></g></g></g><g fill="#000000" fill-opacity="1"><g transform="translate(233.152943, 179.742759)"><g><path d="M 56.921875 -60.515625 C 57.160156 -58.835938 57.28125 -57.203125 57.28125 -55.609375 C 57.28125 -51.066406 56.363281 -46.757812 54.53125 -42.6875 C 53.5 -40.695312 52.425781 -38.945312 51.3125 -37.4375 C 51.550781 -37.832031 51.671875 -38.3125 51.671875 -38.875 C 51.671875 -39.507812 51.628906 -39.984375 51.546875 -40.296875 C 51.460938 -40.617188 51.421875 -41.019531 51.421875 -41.5 C 51.421875 -41.894531 51.503906 -42.09375 51.671875 -42.09375 L 51.546875 -42.09375 C 51.546875 -42.65625 51.503906 -43.054688 51.421875 -43.296875 C 51.421875 -43.773438 51.582031 -44.210938 51.90625 -44.609375 C 51.425781 -44.691406 51.265625 -44.890625 51.421875 -45.203125 C 51.421875 -45.523438 51.382812 -45.722656 51.3125 -45.796875 L 51.3125 -37.4375 C 49.394531 -34.800781 47 -32.6875 44.125 -31.09375 L 44.015625 -31.09375 C 40.179688 -29.019531 35.914062 -27.347656 31.21875 -26.078125 C 29.863281 -25.597656 27.988281 -25.15625 25.59375 -24.75 L 24.515625 -24.515625 L 23.5625 -24.390625 L 23.4375 -24.390625 C 23.4375 -24.554688 23.359375 -24.640625 23.203125 -24.640625 C 22.804688 -24.640625 22.609375 -24.519531 22.609375 -24.28125 C 22.609375 -24.195312 22.644531 -24.15625 22.71875 -24.15625 L 19.015625 -23.671875 L 18.296875 -2.390625 C 18.296875 -0.796875 17.5 0 15.90625 0 L 1.203125 0 C 0.484375 0 -0.09375 -0.238281 -0.53125 -0.71875 C -0.976562 -1.195312 -1.203125 -1.796875 -1.203125 -2.515625 L -0.71875 -11.484375 L -0.484375 -11.234375 C -0.242188 -11.316406 0.15625 -11.554688 0.71875 -11.953125 L 0.359375 -12.203125 L -0.234375 -12.203125 L -0.71875 -11.84375 L -0.484375 -18.171875 L -0.125 -18.171875 C -0.125 -18.335938 -0.203125 -18.421875 -0.359375 -18.421875 L -0.484375 -18.53125 L 2.15625 -75.109375 C 2.3125 -76.304688 2.945312 -77.019531 4.0625 -77.25 C 18.8125 -80.28125 27.101562 -81.914062 28.9375 -82.15625 C 29.257812 -82.15625 29.695312 -82.175781 30.25 -82.21875 C 30.8125 -82.257812 31.453125 -82.359375 32.171875 -82.515625 L 35.40625 -82.640625 L 35.515625 -82.640625 C 41.734375 -82.316406 46.675781 -80.160156 50.34375 -76.171875 C 54.007812 -72.191406 56.203125 -66.972656 56.921875 -60.515625 Z M 6.34375 -69.84375 L 6.34375 -70.203125 L 6.09375 -70.203125 L 6.09375 -69.84375 Z M 19.96875 -42.8125 C 22.519531 -43.132812 24.4375 -43.453125 25.71875 -43.765625 C 29.625 -45.046875 32.570312 -46.523438 34.5625 -48.203125 C 36.070312 -49.472656 37.066406 -51.144531 37.546875 -53.21875 C 37.628906 -53.613281 37.671875 -54.210938 37.671875 -55.015625 C 37.671875 -57.328125 37.148438 -59.398438 36.109375 -61.234375 C 35.078125 -63.066406 33.601562 -63.984375 31.6875 -63.984375 C 31.207031 -63.984375 30.847656 -63.941406 30.609375 -63.859375 L 21.171875 -61.953125 Z M 44.484375 -63.265625 L 44.484375 -63.03125 L 44.96875 -63.03125 L 44.96875 -63.265625 Z M 38.03125 -62.3125 C 37.945312 -62.226562 37.90625 -62.144531 37.90625 -62.0625 C 37.90625 -61.988281 37.945312 -61.953125 38.03125 -61.953125 C 38.113281 -61.785156 38.234375 -61.703125 38.390625 -61.703125 C 38.546875 -61.703125 38.625 -61.785156 38.625 -61.953125 L 38.875 -62.0625 Z M 4.90625 -61.109375 L 4.90625 -61.703125 L 4.671875 -61.703125 L 4.671875 -61.109375 Z M 41.625 -61.109375 L 41.625 -61.46875 L 41.265625 -61.46875 L 41.265625 -61.109375 Z M 42.34375 -57.171875 C 42.34375 -57.566406 42.019531 -57.925781 41.375 -58.25 L 41.375 -56.8125 C 41.695312 -56.8125 42.019531 -56.929688 42.34375 -57.171875 Z M 42.578125 -54.78125 C 42.890625 -55.09375 43.046875 -55.289062 43.046875 -55.375 L 42.8125 -55.96875 L 42.34375 -55.609375 C 42.34375 -55.609375 42.320312 -55.585938 42.28125 -55.546875 C 42.238281 -55.503906 42.21875 -55.484375 42.21875 -55.484375 L 42.09375 -55.484375 C 41.78125 -55.328125 41.539062 -55.171875 41.375 -55.015625 Z M 44.484375 -53.8125 C 44.242188 -54.375 44.085938 -54.65625 44.015625 -54.65625 L 43.765625 -54.78125 L 43.53125 -54.65625 C 43.53125 -54.332031 43.691406 -54.171875 44.015625 -54.171875 Z M 40.1875 -52.015625 C 40.1875 -52.253906 40.144531 -52.414062 40.0625 -52.5 L 39.828125 -52.625 L 39.34375 -52.625 L 39.34375 -52.015625 Z M 39.9375 -50.59375 C 40.257812 -50.90625 40.421875 -51.179688 40.421875 -51.421875 C 40.097656 -51.421875 39.898438 -51.460938 39.828125 -51.546875 L 39.34375 -51.1875 C 39.101562 -50.945312 39.023438 -50.785156 39.109375 -50.703125 Z M 41.375 -50.828125 C 42.019531 -50.828125 42.34375 -51.023438 42.34375 -51.421875 L 41.375 -51.421875 Z M 51.671875 -49.265625 C 51.742188 -49.347656 51.78125 -49.46875 51.78125 -49.625 C 51.78125 -49.945312 51.625 -50.304688 51.3125 -50.703125 C 51.144531 -50.546875 51.144531 -50.390625 51.3125 -50.234375 C 51.3125 -49.992188 51.269531 -49.832031 51.1875 -49.75 L 50.34375 -49.75 C 50.507812 -49.507812 50.429688 -49.390625 50.109375 -49.390625 C 50.109375 -49.390625 50.347656 -49.3125 50.828125 -49.15625 L 51.421875 -49.03125 C 51.421875 -49.03125 51.441406 -49.066406 51.484375 -49.140625 C 51.523438 -49.222656 51.585938 -49.265625 51.671875 -49.265625 Z M 40.65625 -49.75 C 41.300781 -49.507812 41.863281 -49.390625 42.34375 -49.390625 C 41.863281 -49.785156 41.625 -49.984375 41.625 -49.984375 C 41.21875 -49.984375 40.976562 -49.945312 40.90625 -49.875 Z M 41.375 -49.265625 L 40.90625 -49.03125 L 41.625 -48.5625 L 41.859375 -48.796875 Z M 51.1875 -48.796875 L 51.1875 -46.046875 L 51.546875 -46.046875 L 51.546875 -48.796875 Z M 39.109375 -45.453125 C 38.710938 -45.921875 38.273438 -46.238281 37.796875 -46.40625 Z M 40.0625 -40.90625 L 40.0625 -40.65625 L 41.265625 -40.65625 L 41.265625 -40.90625 Z M 38.03125 -39.34375 C 38.03125 -39.5 37.929688 -39.632812 37.734375 -39.75 C 37.535156 -39.875 37.351562 -39.9375 37.1875 -39.9375 L 36.953125 -39.234375 Z M 35.046875 -39.34375 L 35.765625 -39.34375 L 35.765625 -39.578125 L 35.046875 -39.578125 Z M 8.609375 -37.546875 C 8.453125 -37.785156 8.253906 -37.988281 8.015625 -38.15625 C 7.773438 -38.3125 7.65625 -38.46875 7.65625 -38.625 C 7.414062 -38.382812 7.175781 -38.265625 6.9375 -38.265625 C 6.9375 -38.191406 6.859375 -38.15625 6.703125 -38.15625 C 7.335938 -38.070312 7.773438 -37.867188 8.015625 -37.546875 Z M 35.28125 -38.515625 C 35.125 -38.347656 35.046875 -38.265625 35.046875 -38.265625 L 34.921875 -38.265625 C 34.765625 -38.191406 34.6875 -38.070312 34.6875 -37.90625 C 34.6875 -37.664062 34.722656 -37.546875 34.796875 -37.546875 L 34.921875 -37.546875 C 35.078125 -37.390625 35.273438 -37.3125 35.515625 -37.3125 C 35.921875 -37.3125 36.160156 -37.429688 36.234375 -37.671875 L 36.234375 -38.265625 Z M 6.09375 -37.546875 L 6.34375 -37.90625 C 6.414062 -37.988281 6.453125 -38.109375 6.453125 -38.265625 L 5.859375 -38.265625 L 5.859375 -38.03125 Z M 23.671875 -38.03125 L 23.328125 -38.03125 L 23.328125 -37.4375 L 23.671875 -37.4375 Z M 6.703125 -36.125 C 7.015625 -36.125 7.289062 -36.160156 7.53125 -36.234375 C 8.007812 -36.390625 8.289062 -36.46875 8.375 -36.46875 L 7.78125 -36.953125 C 7.457031 -37.109375 7.253906 -37.1875 7.171875 -37.1875 C 7.015625 -37.1875 6.773438 -37.109375 6.453125 -36.953125 L 5.859375 -36.46875 C 6.015625 -36.394531 6.132812 -36.335938 6.21875 -36.296875 C 6.300781 -36.253906 6.300781 -36.234375 6.21875 -36.234375 Z M 37.90625 -37.078125 L 37.671875 -36.46875 L 38.15625 -36.359375 L 38.390625 -36.828125 Z M 30.140625 -35.28125 C 29.984375 -35.28125 29.820312 -35.21875 29.65625 -35.09375 C 29.5 -34.976562 29.421875 -34.84375 29.421875 -34.6875 L 30.25 -34.5625 L 30.25 -33.96875 L 30.96875 -33.96875 L 31.328125 -34.078125 C 31.015625 -34.398438 30.65625 -34.5625 30.25 -34.5625 L 30.375 -34.921875 C 30.375 -35.003906 30.296875 -35.125 30.140625 -35.28125 Z M 34.5625 -34.5625 C 34.5625 -34.644531 34.519531 -34.6875 34.4375 -34.6875 L 34.4375 -34.921875 C 34.4375 -34.921875 34.414062 -34.941406 34.375 -34.984375 C 34.34375 -35.023438 34.328125 -35.046875 34.328125 -35.046875 L 33.609375 -34.5625 Z M 5.984375 -34.921875 L 5.734375 -34.921875 L 6.09375 -33.96875 L 6.34375 -33.96875 Z M 32.40625 -33.71875 C 32.570312 -33.882812 32.65625 -34.046875 32.65625 -34.203125 C 32.65625 -34.359375 32.570312 -34.519531 32.40625 -34.6875 L 31.578125 -34.6875 C 31.816406 -34.125 32.09375 -33.800781 32.40625 -33.71875 Z M 6.09375 -33.71875 L 5.734375 -33.359375 L 5.984375 -33.25 L 6.34375 -33.71875 Z M 24.75 -33.71875 L 24.75 -32.890625 L 25.71875 -33.015625 Z M 9.09375 -33.609375 L 9.09375 -33.015625 L 9.8125 -33.015625 L 9.8125 -33.609375 Z M 31.328125 -33.125 C 30.929688 -32.882812 30.570312 -32.566406 30.25 -32.171875 L 31.21875 -32.171875 L 33.015625 -31.8125 L 33.015625 -32.046875 L 32.890625 -32.171875 L 32.765625 -32.40625 L 32.65625 -32.40625 L 32.53125 -32.296875 L 32.046875 -32.171875 L 31.578125 -32.171875 Z M 33.84375 -31.21875 C 33.84375 -31.53125 33.644531 -31.804688 33.25 -32.046875 C 33.007812 -31.734375 32.96875 -31.414062 33.125 -31.09375 L 33.609375 -31.09375 Z M 30.859375 -29.90625 C 31.097656 -29.90625 31.296875 -29.820312 31.453125 -29.65625 C 31.847656 -30.21875 32.046875 -30.535156 32.046875 -30.609375 L 31.9375 -31.09375 C 31.9375 -31.09375 31.816406 -31.210938 31.578125 -31.453125 L 31.328125 -31.328125 L 31.21875 -31.328125 C 31.21875 -31.328125 31.195312 -31.304688 31.15625 -31.265625 C 31.113281 -31.234375 31.09375 -31.21875 31.09375 -31.21875 L 30.859375 -31.09375 Z M 4.3125 -30.734375 L 4.90625 -30.734375 L 4.78125 -30.96875 C 4.78125 -30.96875 4.660156 -31.085938 4.421875 -31.328125 L 4.421875 -30.96875 Z M 34.5625 -30.25 L 34.5625 -29.90625 L 35.515625 -30.140625 L 35.515625 -30.5 Z M 23.203125 -29.78125 C 22.804688 -29.382812 22.609375 -29.101562 22.609375 -28.9375 L 23.203125 -28.578125 L 23.921875 -29.1875 Z M 32.40625 -29.296875 C 32.40625 -29.054688 32.609375 -28.9375 33.015625 -28.9375 L 33.25 -28.9375 C 33.320312 -29.019531 33.359375 -29.179688 33.359375 -29.421875 L 33.359375 -29.78125 C 32.722656 -29.78125 32.40625 -29.617188 32.40625 -29.296875 Z M 8.015625 -29.65625 L 7.296875 -29.421875 L 7.296875 -29.1875 L 8.125 -29.421875 Z M 33.84375 -28.109375 C 34 -28.347656 34 -28.546875 33.84375 -28.703125 C 33.445312 -28.546875 33.25 -28.347656 33.25 -28.109375 Z M 32.765625 -27.859375 C 32.765625 -28.097656 32.644531 -28.257812 32.40625 -28.34375 C 32.007812 -28.34375 31.8125 -28.179688 31.8125 -27.859375 Z M 5.265625 -27.625 L 5.265625 -26.90625 L 5.5 -26.90625 L 5.5 -27.625 Z M 22.25 -26.3125 L 22.25 -25.828125 L 22.96875 -25.828125 L 22.96875 -26.3125 Z M 5.375 -26.1875 C 5.300781 -25.875 5.222656 -25.597656 5.140625 -25.359375 C 5.054688 -25.117188 4.976562 -24.878906 4.90625 -24.640625 C 4.820312 -24.398438 4.738281 -24.160156 4.65625 -23.921875 C 4.582031 -23.679688 4.546875 -23.441406 4.546875 -23.203125 C 4.546875 -23.046875 4.585938 -22.925781 4.671875 -22.84375 C 4.828125 -22.6875 4.863281 -22.566406 4.78125 -22.484375 C 4.382812 -22.398438 4.265625 -22.160156 4.421875 -21.765625 C 4.585938 -21.285156 4.585938 -20.96875 4.421875 -20.8125 C 4.421875 -20.8125 4.34375 -20.726562 4.1875 -20.5625 C 4.1875 -20.5625 4.164062 -20.539062 4.125 -20.5 C 4.082031 -20.46875 4.0625 -20.453125 4.0625 -20.453125 C 3.90625 -20.367188 3.828125 -20.25 3.828125 -20.09375 C 3.828125 -19.9375 3.867188 -19.816406 3.953125 -19.734375 C 3.953125 -19.734375 3.96875 -19.671875 4 -19.546875 C 4.039062 -19.429688 3.984375 -19.332031 3.828125 -19.25 L 3.59375 -19.140625 L 3.46875 -19.140625 C 3.707031 -18.734375 3.785156 -18.410156 3.703125 -18.171875 C 3.390625 -17.296875 3.3125 -16.703125 3.46875 -16.390625 C 3.550781 -16.222656 3.570312 -16.078125 3.53125 -15.953125 C 3.488281 -15.835938 3.425781 -15.78125 3.34375 -15.78125 C 3.1875 -15.382812 3.109375 -14.90625 3.109375 -14.34375 C 3.109375 -13.789062 3.148438 -13.394531 3.234375 -13.15625 C 2.992188 -13.070312 2.832031 -12.910156 2.75 -12.671875 L 2.265625 -12.078125 L 2.265625 -11.71875 C 2.265625 -10.601562 2.226562 -9.847656 2.15625 -9.453125 C 1.988281 -8.890625 1.882812 -8.425781 1.84375 -8.0625 C 1.8125 -7.707031 1.796875 -7.410156 1.796875 -7.171875 C 1.796875 -6.929688 1.753906 -6.734375 1.671875 -6.578125 L 1.4375 -6.09375 C 1.4375 -5.695312 1.492188 -5.097656 1.609375 -4.296875 C 1.734375 -3.503906 1.914062 -2.988281 2.15625 -2.75 C 2.632812 -2.59375 3.191406 -2.515625 3.828125 -2.515625 L 5.375 -2.265625 Z M 1.078125 -22 L 1.078125 -22.359375 L 0.359375 -22.359375 L 0.359375 -22 Z M 1.078125 -19.96875 C 0.921875 -20.132812 0.703125 -20.21875 0.421875 -20.21875 C 0.140625 -20.21875 0 -20.132812 0 -19.96875 L 0.359375 -19.609375 C 0.597656 -19.609375 0.835938 -19.726562 1.078125 -19.96875 Z M 0.953125 -18.53125 C 1.117188 -18.53125 1.203125 -18.613281 1.203125 -18.78125 C 0.722656 -18.9375 0.320312 -18.9375 0 -18.78125 L 0.59375 -18.421875 Z M 0.953125 -17.578125 C 0.554688 -17.816406 0.359375 -18.054688 0.359375 -18.296875 L 0.234375 -17.9375 C 0.234375 -17.78125 0.195312 -17.660156 0.125 -17.578125 Z M 11.59375 -16.5 C 11.59375 -16.1875 11.675781 -15.867188 11.84375 -15.546875 L 11.84375 -16.859375 Z M -0.234375 -15.1875 L -0.234375 -14.828125 L 0.359375 -14.828125 L 0.359375 -15.1875 Z M 11.59375 -14 L 11.484375 -13.640625 C 11.484375 -13.472656 11.441406 -13.390625 11.359375 -13.390625 C 11.597656 -12.992188 11.640625 -12.796875 11.484375 -12.796875 C 11.398438 -12.878906 11.335938 -12.898438 11.296875 -12.859375 C 11.253906 -12.816406 11.234375 -12.753906 11.234375 -12.671875 C 11.234375 -12.359375 11.273438 -12.097656 11.359375 -11.890625 C 11.441406 -11.691406 11.5625 -11.4375 11.71875 -11.125 L 11.84375 -15.1875 Z M -0.359375 -10.171875 L -0.71875 -10.046875 L -0.71875 -9.921875 L -0.234375 -10.046875 Z M 16.03125 -0.59375 L 15.78125 -0.59375 L 15.90625 -0.234375 L 16.140625 -0.234375 Z M 16.03125 -0.59375 "/></g></g></g></svg>